<?xml version="1.0" encoding="utf-8"?>
<!-- Generator: Adobe Illustrator 15.0.2, SVG Export Plug-In . SVG Version: 6.00 Build 0)  -->
<!DOCTYPE svg PUBLIC "-//W3C//DTD SVG 1.1//EN" "http://www.w3.org/Graphics/SVG/1.1/DTD/svg11.dtd">
<svg version="1.1" id="レイヤー_1" xmlns="http://www.w3.org/2000/svg" xmlns:xlink="http://www.w3.org/1999/xlink" x="0px"
	 y="0px" width="600px" height="600px" viewBox="0 0 600 600" enable-background="new 0 0 600 600" xml:space="preserve">
<g transform="matrix(0.33225658238374106, 0, 0, 0.33225658238374106, 236.20582321133895, 95.32018844182844)">
	<g>
		<path fill="none" stroke="#CCCCCC" stroke-width="3" stroke-linecap="round" stroke-linejoin="round" stroke-miterlimit="10" d="
			M-537.6,102.6c283.1,147.6,417.3,520.4,299.7,832.6"/>
	</g>
</g>
<g transform="matrix(-0.8838727400434025, -0.4607807594117631, 0.4607807594117631, -0.8838727400434025, 268.86699609211155, 117.55948792219074)">
	<g>
		<path fill="#CCCCCC" d="M182.5-108.1c0.2,0,0.4-0.2,0.4-0.4c0-0.2-0.2-0.4-0.4-0.4L182.5-108.1z"/>
	</g>
</g>
<g transform="matrix(-1.0537708075565289, 2.7984846693639187, -2.7984846693639187, -1.0537708075565289, 390.8001325525042, 467.76728466656607)">
	<g>
		<path fill="#CCCCCC" d="M8.2,80l1.6,0.4l-1.6,0.4L8.2,80z"/>
	</g>
</g>
<g transform="matrix(0.33225658238374106, 0, 0, 0.33225658238374106, 236.20582321133895, 95.32018844182844)">
	<g>
		<path fill="none" stroke="#CCCCCC" stroke-width="3" stroke-linecap="round" stroke-linejoin="round" stroke-miterlimit="10" d="
			M-205.1,911.7c3.2,18.9-2.9,36.7-16.7,40.8"/>
	</g>
</g>
<g transform="matrix(-0.16529194555068882, -0.9829692271744734, 0.9829692271744734, -0.16529194555068882, 406.48314414052754, 452.42702421545425)">
	<g>
		<path fill="#CCCCCC" d="M93.3-226.5c0.2,0,0.4-0.2,0.4-0.4c0-0.2-0.2-0.4-0.4-0.4L93.3-226.5z"/>
	</g>
</g>
<g transform="matrix(-2.8679750856344643, 0.8465626188907747, -0.8465626188907747, -2.8679750856344643, 393.8238114354564, 471.02049517352407)">
	<g>
		<path fill="#CCCCCC" d="M68.6,40.5l1.6,0.4l-1.6,0.4L68.6,40.5z"/>
	</g>
</g>
<g transform="matrix(0.33225658238374106, 0, 0, 0.33225658238374106, 236.20582321133895, 95.32018844182844)">
	<g>
		<path fill="none" stroke="#CCCCCC" stroke-width="3" stroke-linecap="round" stroke-linejoin="round" stroke-miterlimit="10" d="
			M-58.4,1102.2c-79.9,11.6-161.3-40.6-181.9-116.6"/>
	</g>
</g>
<g transform="matrix(0.9864711390553456, -0.14291473208442237, 0.14291473208442237, 0.9864711390553456, 467.17563719305565, 531.2908739217114)">
	<g>
		<path fill="#CCCCCC" d="M-238.6-104.9c0.2,0,0.4-0.2,0.4-0.4c0-0.2-0.2-0.4-0.4-0.4L-238.6-104.9z"/>
	</g>
</g>
<g transform="matrix(-0.7811764707395885, -2.8864706270956684, 2.8864706270956684, -0.7811764707395885, 390.3458146682791, 477.2421943602509)">
	<g>
		<path fill="#CCCCCC" d="M38-71.2l1.6,0.4L38-70.4L38-71.2z"/>
	</g>
</g>
<g transform="matrix(0.33225658238374106, 0, 0, 0.33225658238374106, 236.20582321133895, 95.32018844182844)">
	<g>
		<path fill="none" stroke="#CCCCCC" stroke-width="3" stroke-linecap="round" stroke-linejoin="round" stroke-miterlimit="10" d="
			M151.7,690.8C117.5,855.3-49.3,976.9-220.8,962.2"/>
	</g>
</g>
<g transform="matrix(0.20336875116743514, -0.9758027873932884, 0.9758027873932884, 0.20336875116743514, 554.1552960134825, 361.0206102002053)">
	<g>
		<path fill="#CCCCCC" d="M-19.2-269.8c0.2,0,0.4-0.2,0.4-0.4c0-0.2-0.2-0.4-0.4-0.4L-19.2-269.8z"/>
	</g>
</g>
<g transform="matrix(-2.979502610752929, -0.2539951811347973, 0.2539951811347973, -2.979502610752929, 394.0096917964262, 472.8547202323281)">
	<g>
		<path fill="#CCCCCC" d="M78.7,12.3l1.6,0.4l-1.6,0.4L78.7,12.3z"/>
	</g>
</g>
<g transform="matrix(0.33225658238374106, 0, 0, 0.33225658238374106, 236.20582321133895, 95.32018844182844)">
	<g>
		<path fill="none" stroke="#CCCCCC" stroke-width="3" stroke-linecap="round" stroke-linejoin="round" stroke-miterlimit="10" d="
			M308.6,809.8C205.2,983-32.8,1055.1-223,970.7"/>
	</g>
</g>
<g transform="matrix(0.5106760406311576, -0.8560139662185411, 0.8560139662185411, 0.5106760406311576, 619.0700880313652, 410.2601677540481)">
	<g>
		<path fill="#CCCCCC" d="M-104.6-264.7c0.2,0,0.4-0.2,0.4-0.4c0-0.2-0.2-0.4-0.4-0.4L-104.6-264.7z"/>
	</g>
</g>
<g transform="matrix(-2.7334963752948873, -1.2124136776583025, 1.2124136776583025, -2.7334963752948873, 393.5996741138746, 474.45208268845613)">
	<g>
		<path fill="#CCCCCC" d="M78.4-14.5l1.6,0.4l-1.6,0.4L78.4-14.5z"/>
	</g>
</g>
<g transform="matrix(0.33225658238374106, 0, 0, 0.33225658238374106, 236.20582321133895, 95.32018844182844)">
	<g>
		<path fill="none" stroke="#CCCCCC" stroke-width="3" stroke-linecap="round" stroke-linejoin="round" stroke-miterlimit="10" d="
			M787.5,988.1c-271.1,245.2-725.4,240.4-1014.7-10.8"/>
	</g>
</g>
<g transform="matrix(0.7391861627299284, -0.6686955552899372, 0.6686955552899372, 0.7391861627299284, 817.2814593143526, 484.08131810186387)">
	<g>
		<path fill="#CCCCCC" d="M-197-259.6c0.2,0,0.4-0.2,0.4-0.4c0-0.2-0.2-0.4-0.4-0.4L-197-259.6z"/>
	</g>
</g>
<g transform="matrix(-2.2579696544145156, -1.9604903466394357, 1.9604903466394357, -2.2579696544145156, 392.8071375235341, 475.69889660435683)">
	<g>
		<path fill="#CCCCCC" d="M70.8-37.2l1.6,0.4l-1.6,0.4L70.8-37.2z"/>
	</g>
</g>
<g transform="matrix(0.33225658238374106, 0, 0, 0.33225658238374106, 236.20582321133895, 95.32018844182844)">
	<g>
		<path fill="none" stroke="#CCCCCC" stroke-width="3" stroke-linecap="round" stroke-linejoin="round" stroke-miterlimit="10" d="
			M-357.3,524.7c133.5,81.8,187.7,265.9,121.2,411.2"/>
	</g>
</g>
<g transform="matrix(-0.8497995651601189, -0.5209516560004261, 0.5209516560004261, -0.8497995651601189, 343.4543604567855, 292.2950477097848)">
	<g>
		<path fill="#CCCCCC" d="M205.1-98.7c0.2,0,0.4-0.2,0.4-0.4c0-0.2-0.2-0.4-0.4-0.4L205.1-98.7z"/>
	</g>
</g>
<g transform="matrix(-1.2452565411076992, 2.7186918741099935, -2.7186918741099935, -1.2452565411076992, 391.1192785464778, 467.9002359699174)">
	<g>
		<path fill="#CCCCCC" d="M13.8,79.1l1.6,0.4l-1.6,0.4L13.8,79.1z"/>
	</g>
</g>
<g transform="matrix(0.33225658238374106, 0, 0, 0.33225658238374106, 236.20582321133895, 95.32018844182844)">
	<g>
		<path fill="none" stroke="#CCCCCC" stroke-width="3" stroke-linecap="round" stroke-linejoin="round" stroke-miterlimit="10" d="
			M954.1,189C834.1,680,308,1026.6-220.9,963.1"/>
	</g>
</g>
<g transform="matrix(0.2367617182739155, -0.9682426439668397, 0.9682426439668397, 0.2367617182739155, 886.24489837407, 153.32245567440083)">
	<g>
		<path fill="#CCCCCC" d="M-84-323c0.2,0,0.4-0.2,0.4-0.4c0-0.2-0.2-0.4-0.4-0.4L-84-323z"/>
	</g>
</g>
<g transform="matrix(-2.9690216895368535, -0.3561735062900496, 0.3561735062900496, -2.9690216895368535, 393.99222115154566, 473.02502606599865)">
	<g>
		<path fill="#CCCCCC" d="M79.1,9.5l1.6,0.4l-1.6,0.4L79.1,9.5z"/>
	</g>
</g>
<g transform="matrix(0.33225658238374106, 0, 0, 0.33225658238374106, 236.20582321133895, 95.32018844182844)">
	<g>
		<path fill="none" stroke="#CCCCCC" stroke-width="3" stroke-linecap="round" stroke-linejoin="round" stroke-miterlimit="10" d="
			M34.9,610.7C49.5,766.6-65.2,920.4-221.3,954.4"/>
	</g>
</g>
<g transform="matrix(-0.0931184430996087, -0.9924106430256672, 0.9924106430256672, -0.0931184430996087, 505.79924813522024, 327.87799582809475)">
	<g>
		<path fill="#CCCCCC" d="M53.8-254.5c0.2,0,0.4-0.2,0.4-0.4c0-0.2-0.2-0.4-0.4-0.4L53.8-254.5z"/>
	</g>
</g>
<g transform="matrix(-2.922107445705787, 0.6350097914788558, -0.6350097914788558, -2.922107445705787, 393.9140341853969, 471.3730716469935)">
	<g>
		<path fill="#CCCCCC" d="M71.4,35.3l1.6,0.4l-1.6,0.4L71.4,35.3z"/>
	</g>
</g>
<g transform="matrix(0.33225658238374106, 0, 0, 0.33225658238374106, 236.20582321133895, 95.32018844182844)">
	<g>
		<path fill="none" stroke="#CCCCCC" stroke-width="3" stroke-linecap="round" stroke-linejoin="round" stroke-miterlimit="10" d="
			M-44.9,690.9c15.6,115.4-63.5,232.9-176.7,262.4"/>
	</g>
</g>
<g transform="matrix(-0.1335137298319928, -0.9877874329947021, 0.9877874329947021, -0.1335137298319928, 472.77557204775815, 361.080535627509)">
	<g>
		<path fill="#CCCCCC" d="M69.8-244.8c0.2,0,0.4-0.2,0.4-0.4c0-0.2-0.2-0.4-0.4-0.4L69.8-244.8z"/>
	</g>
</g>
<g transform="matrix(-2.893779331814182, 0.7536514700365735, -0.7536514700365735, -2.893779331814182, 393.8668137598549, 471.175307597225)">
	<g>
		<path fill="#CCCCCC" d="M69.9,38.2l1.6,0.4L69.9,39L69.9,38.2z"/>
	</g>
</g>
<g transform="matrix(0.33225658238374106, 0, 0, 0.33225658238374106, 236.20582321133895, 95.32018844182844)">
	<g>
		<path fill="none" stroke="#CCCCCC" stroke-width="3" stroke-linecap="round" stroke-linejoin="round" stroke-miterlimit="10" d="
			M-357.1,1313.9c-345.9-265-437.5-799.6-204.6-1194.1"/>
	</g>
</g>
<g transform="matrix(0.7912703118561648, 0.6061693017721709, -0.6061693017721709, 0.7912703118561648, 343.55542250990493, 618.9160441724274)">
	<g>
		<path fill="#CCCCCC" d="M-233.1,69c0.2,0,0.4-0.2,0.4-0.4c0-0.2-0.2-0.4-0.4-0.4L-233.1,69z"/>
	</g>
</g>
<g transform="matrix(1.520152332082743, -2.5750895609253317, 2.5750895609253317, 1.520152332082743, 261.9140444576202, 119.54739990174639)">
	<g>
		<path fill="#CCCCCC" d="M-40.6-58.9l1.6,0.4l-1.6,0.4L-40.6-58.9z"/>
	</g>
</g>
<g transform="matrix(0.33225658238374106, 0, 0, 0.33225658238374106, 236.20582321133895, 95.32018844182844)">
	<g>
		<path fill="none" stroke="#CCCCCC" stroke-width="3" stroke-linecap="round" stroke-linejoin="round" stroke-miterlimit="10" d="
			M-345.3,1309.4c23.1-124.3,145-218.6,272.4-210.6"/>
	</g>
</g>
<g transform="matrix(-0.18183123437891888, 0.980044555640279, -0.980044555640279, -0.18183123437891888, 348.42093120131904, 617.0466547512057)">
	<g>
		<path fill="#CCCCCC" d="M-44,240.1c0.2,0,0.4-0.2,0.4-0.4c0-0.2-0.2-0.4-0.4-0.4L-44,240.1z"/>
	</g>
</g>
<g transform="matrix(2.9843733851283933, 0.1883211556371545, -0.1883211556371545, 2.9843733851283933, 467.1340442822604, 530.2624278573188)">
	<g>
		<path fill="#CCCCCC" d="M-86.6-18.3l1.6,0.4l-1.6,0.4L-86.6-18.3z"/>
	</g>
</g>
<g transform="matrix(0.33225658238374106, 0, 0, 0.33225658238374106, 236.20582321133895, 95.32018844182844)">
	<g>
		<path fill="none" stroke="#CCCCCC" stroke-width="3" stroke-linecap="round" stroke-linejoin="round" stroke-miterlimit="10" d="
			M-348.6,1309.2c-25.9-282.8,187.6-562.4,476.9-624.7"/>
	</g>
</g>
<g transform="matrix(0.09097478148841487, 0.9926094488614585, -0.9926094488614585, 0.09097478148841487, 347.0569027440256, 616.9838293793657)">
	<g>
		<path fill="#CCCCCC" d="M-107.3,218.9c0.2,0,0.4-0.2,0.4-0.4c0-0.2-0.2-0.4-0.4-0.4L-107.3,218.9z"/>
	</g>
</g>
<g transform="matrix(2.9234721006942315, -0.628697253044482, 0.628697253044482, 2.9234721006942315, 550.2996879369622, 357.18943871925217)">
	<g>
		<path fill="#CCCCCC" d="M-86.3-30.7l1.6,0.4l-1.6,0.4V-30.7z"/>
	</g>
</g>
<g transform="matrix(0.33225658238374106, 0, 0, 0.33225658238374106, 236.20582321133895, 95.32018844182844)">
	<g>
		<path fill="none" stroke="#CCCCCC" stroke-width="3" stroke-linecap="round" stroke-linejoin="round" stroke-miterlimit="10" d="
			M790.4,990.5c-210.5,362.3-709.1,515.1-1113.6,341.2"/>
	</g>
</g>
<g transform="matrix(0.5007578932232857, -0.8618535033348126, 0.8618535033348126, 0.5007578932232857, 818.4736001500465, 485.047101029076)">
	<g>
		<path fill="#CCCCCC" d="M-108.5-307.5c0.2,0,0.4-0.2,0.4-0.4c0-0.2-0.2-0.4-0.4-0.4L-108.5-307.5z"/>
	</g>
</g>
<g transform="matrix(-2.747313595693662, -1.1807698194144294, 1.1807698194144294, -2.747313595693662, 352.0906386375371, 623.9148184968453)">
	<g>
		<path fill="#CCCCCC" d="M80-3.4L81.6-3L80-2.6L80-3.4z"/>
	</g>
</g>
<g transform="matrix(0.33225658238374106, 0, 0, 0.33225658238374106, 236.20582321133895, 95.32018844182844)">
	<g>
		<path fill="none" stroke="#CCCCCC" stroke-width="3" stroke-linecap="round" stroke-linejoin="round" stroke-miterlimit="10" d="
			M-359.1,527c196.6,198.9,209.2,545.2,28.1,773.5"/>
	</g>
</g>
<g transform="matrix(-0.7007202778368515, -0.7089012773751778, 0.7089012773751778, -0.7007202778368515, 342.7089631746573, 293.2347919741685)">
	<g>
		<path fill="#CCCCCC" d="M175.5-144.6c0.2,0,0.4-0.2,0.4-0.4c0-0.2-0.2-0.4-0.4-0.4L175.5-144.6z"/>
	</g>
</g>
<g transform="matrix(-1.8587516847671053, 2.342432823775032, -2.342432823775032, -1.8587516847671053, 350.6096998288373, 618.0428161183843)">
	<g>
		<path fill="#CCCCCC" d="M22.9,77.2l1.6,0.4L22.9,78L22.9,77.2z"/>
	</g>
</g>
<g transform="matrix(0.33225658238374106, 0, 0, 0.33225658238374106, 236.20582321133895, 95.32018844182844)">
	<g>
		<path fill="none" stroke="#CCCCCC" stroke-width="3" stroke-linecap="round" stroke-linejoin="round" stroke-miterlimit="10" d="
			M448.5,1150.6C287.8,1388.1-58.1,1469.9-324,1333.3"/>
	</g>
</g>
<g transform="matrix(0.5586008385713319, -0.8255392370949537, 0.8255392370949537, 0.5586008385713319, 676.9753693566348, 551.3168363633275)">
	<g>
		<path fill="#CCCCCC" d="M-102.8-283.5c0.2,0,0.4-0.2,0.4-0.4c0-0.2-0.2-0.4-0.4-0.4L-102.8-283.5z"/>
	</g>
</g>
<g transform="matrix(-2.660007266825005, -1.366129825441706, 1.366129825441706, -2.660007266825005, 351.945124287751, 624.2237538469451)">
	<g>
		<path fill="#CCCCCC" d="M79.6-9l1.6,0.4l-1.6,0.4L79.6-9z"/>
	</g>
</g>
<g transform="matrix(0.33225658238374106, 0, 0, 0.33225658238374106, 236.20582321133895, 95.32018844182844)">
	<g>
		<path fill="none" stroke="#CCCCCC" stroke-width="3" stroke-linecap="round" stroke-linejoin="round" stroke-miterlimit="10" d="
			M955.8,189.3C897,798.5,325.3,1305-321.1,1320.6"/>
	</g>
</g>
<g transform="matrix(0.09581920568976499, -0.9921535207098224, 0.9921535207098224, 0.09581920568976499, 886.9496457343605, 153.44200740885503)">
	<g>
		<path fill="#CCCCCC" d="M-36.9-331.8c0.2,0,0.4-0.2,0.4-0.4c0-0.2-0.2-0.4-0.4-0.4L-36.9-331.8z"/>
	</g>
</g>
<g transform="matrix(-2.989437259371211, 0.07220963790496247, -0.07220963790496247, -2.989437259371211, 352.49417707338023, 621.8265339614725)">
	<g>
		<path fill="#CCCCCC" d="M73.8,30.7l1.6,0.4l-1.6,0.4L73.8,30.7z"/>
	</g>
</g>
<g transform="matrix(0.33225658238374106, 0, 0, 0.33225658238374106, 236.20582321133895, 95.32018844182844)">
	<g>
		<path fill="none" stroke="#CCCCCC" stroke-width="3" stroke-linecap="round" stroke-linejoin="round" stroke-miterlimit="10" d="
			M37,610.3c75.6,274.4-85.5,588.2-360,700.8"/>
	</g>
</g>
<g transform="matrix(-0.2648875503839005, -0.9609289851427782, 0.9609289851427782, -0.2648875503839005, 506.65809814257705, 327.7205876498439)">
	<g>
		<path fill="#CCCCCC" d="M97.5-241.4c0.2,0,0.4-0.2,0.4-0.4c0-0.2-0.2-0.4-0.4-0.4L97.5-241.4z"/>
	</g>
</g>
<g transform="matrix(-2.7664384689949517, 1.1352389866402968, -1.1352389866402968, -2.7664384689949517, 352.12250760843654, 620.0548098051897)">
	<g>
		<path fill="#CCCCCC" d="M57.8,55.5l1.6,0.4l-1.6,0.4L57.8,55.5z"/>
	</g>
</g>
<g transform="matrix(0.33225658238374106, 0, 0, 0.33225658238374106, 236.20582321133895, 95.32018844182844)">
	<g>
		<path fill="none" stroke="#CCCCCC" stroke-width="3" stroke-linecap="round" stroke-linejoin="round" stroke-miterlimit="10" d="
			M-44.8,1088.5c70.1-492.4,551.7-882.7,1075.6-871.7"/>
	</g>
</g>
<g transform="matrix(-0.140528919305749, 0.9868138384085785, -0.9868138384085785, -0.140528919305749, 472.8106350135139, 525.642228110534)">
	<g>
		<path fill="#CCCCCC" d="M-32.6,259.9c0.2,0,0.4-0.2,0.4-0.4s-0.2-0.4-0.4-0.4L-32.6,259.9z"/>
	</g>
</g>
<g transform="matrix(2.9896482091718037, 0.06287244960272566, -0.06287244960272566, 2.9896482091718037, 923.9780843882985, 164.98928236196224)">
	<g>
		<path fill="#CCCCCC" d="M-115.4,2.8l1.6,0.4l-1.6,0.4L-115.4,2.8z"/>
	</g>
</g>
<g transform="matrix(0.33225658238374106, 0, 0, 0.33225658238374106, 236.20582321133895, 95.32018844182844)">
	<g>
		<path fill="none" stroke="#CCCCCC" stroke-width="3" stroke-linecap="round" stroke-linejoin="round" stroke-miterlimit="10" d="
			M-57.8,1096.3C-427,960.5-649.3,524.6-554.3,122.8"/>
	</g>
</g>
<g transform="matrix(0.9354640506600203, 0.3441757381900425, -0.3441757381900425, 0.9354640506600203, 467.43067007758066, 528.855447773958)">
	<g>
		<path fill="#CCCCCC" d="M-259.8,21.9c0.2,0,0.4-0.2,0.4-0.4c0-0.2-0.2-0.4-0.4-0.4L-259.8,21.9z"/>
	</g>
</g>
<g transform="matrix(0.6878950948894048, -2.910111629809124, 2.910111629809124, 0.6878950948894048, 263.3011406555423, 120.10576850570642)">
	<g>
		<path fill="#CCCCCC" d="M-21.5-67.9l1.6,0.4l-1.6,0.4L-21.5-67.9z"/>
	</g>
</g>
<g transform="matrix(0.33225658238374106, 0, 0, 0.33225658238374106, 236.20582321133895, 95.32018844182844)">
	<g>
		<path fill="none" stroke="#CCCCCC" stroke-width="3" stroke-linecap="round" stroke-linejoin="round" stroke-miterlimit="10" d="
			M869.1,989.4C662.9,1241,263,1297.1-24.1,1114.7"/>
	</g>
</g>
<g transform="matrix(0.6317818199928658, -0.7709744877506748, 0.7709744877506748, 0.6317818199928658, 851.0441548338964, 484.59268174818885)">
	<g>
		<path fill="#CCCCCC" d="M-160.4-291.1c0.2,0,0.4-0.2,0.4-0.4c0-0.2-0.2-0.4-0.4-0.4L-160.4-291.1z"/>
	</g>
</g>
<g transform="matrix(-2.5238738208483693, -1.6037488257079013, 1.6037488257079013, -2.5238738208483693, 476.3144575105291, 533.2492084949313)">
	<g>
		<path fill="#CCCCCC" d="M82.2-25.8l1.6,0.4L82.2-25L82.2-25.8z"/>
	</g>
</g>
<g transform="matrix(0.33225658238374106, 0, 0, 0.33225658238374106, 236.20582321133895, 95.32018844182844)">
	<g>
		<path fill="none" stroke="#CCCCCC" stroke-width="3" stroke-linecap="round" stroke-linejoin="round" stroke-miterlimit="10" d="
			M416.9,450.1c40.9,278.2-155.1,566.3-437.8,643.4"/>
	</g>
</g>
<g transform="matrix(-0.14492356595472544, -0.9861780208800436, 0.9861780208800436, -0.14492356595472544, 663.8801526805091, 261.3955201570818)">
	<g>
		<path fill="#CCCCCC" d="M58.6-284.2c0.2,0,0.4-0.2,0.4-0.4c0-0.2-0.2-0.4-0.4-0.4L58.6-284.2z"/>
	</g>
</g>
<g transform="matrix(-2.8848736333636933, 0.7870536697368129, -0.7870536697368129, -2.8848736333636933, 476.9161250241243, 529.2645630262168)">
	<g>
		<path fill="#CCCCCC" d="M73.7,44.2l1.6,0.4L73.7,45L73.7,44.2z"/>
	</g>
</g>
<g transform="matrix(0.33225658238374106, 0, 0, 0.33225658238374106, 236.20582321133895, 95.32018844182844)">
	<g>
		<path fill="none" stroke="#CCCCCC" stroke-width="3" stroke-linecap="round" stroke-linejoin="round" stroke-miterlimit="10" d="
			M645.9,1227.5c-206.4,136.6-508.7,88.8-675.2-106.9"/>
	</g>
</g>
<g transform="matrix(0.8311171329985703, -0.5502674259595512, 0.5502674259595512, 0.8311171329985703, 758.6769060485461, 583.1661363102963)">
	<g>
		<path fill="#CCCCCC" d="M-213.2-237c0.2,0,0.4-0.2,0.4-0.4c0-0.2-0.2-0.4-0.4-0.4L-213.2-237z"/>
	</g>
</g>
<g transform="matrix(-1.9383911255112032, -2.2769693023979554, 2.2769693023979554, -1.9383911255112032, 475.33865659310106, 534.3712639577786)">
	<g>
		<path fill="#CCCCCC" d="M70.9-49.3l1.6,0.4l-1.6,0.4L70.9-49.3z"/>
	</g>
</g>
<g transform="matrix(0.33225658238374106, 0, 0, 0.33225658238374106, 236.20582321133895, 95.32018844182844)">
	<g>
		<path fill="none" stroke="#CCCCCC" stroke-width="3" stroke-linecap="round" stroke-linejoin="round" stroke-miterlimit="10" d="
			M157.9,690.5c48.8,152.2-31.9,330.8-180.3,398.9"/>
	</g>
</g>
<g transform="matrix(-0.3042446130633845, -0.9492023726570772, 0.9492023726570772, -0.3042446130633845, 556.6933558626181, 360.8876183381892)">
	<g>
		<path fill="#CCCCCC" d="M116.6-244.6c0.2,0,0.4-0.2,0.4-0.4c0-0.2-0.2-0.4-0.4-0.4L116.6-244.6z"/>
	</g>
</g>
<g transform="matrix(-2.7173286434614976, 1.2482285059022329, -1.2482285059022329, -2.7173286434614976, 476.6368786166887, 528.4959357688006)">
	<g>
		<path fill="#CCCCCC" d="M65.4,55.8l1.6,0.4l-1.6,0.4L65.4,55.8z"/>
	</g>
</g>
<g transform="matrix(0.33225658238374106, 0, 0, 0.33225658238374106, 236.20582321133895, 95.32018844182844)">
	<g>
		<path fill="none" stroke="#CCCCCC" stroke-width="3" stroke-linecap="round" stroke-linejoin="round" stroke-miterlimit="10" d="
			M313.3,811.4C293.8,971.2,144.6,1100.7-20,1100.5"/>
	</g>
</g>
<g transform="matrix(0.12076866026199691, -0.9894265306400651, 0.9894265306400651, 0.12076866026199691, 621.0196213743144, 410.9272158353682)">
	<g>
		<path fill="#CCCCCC" d="M11.7-284.7c0.2,0,0.4-0.2,0.4-0.4c0-0.2-0.2-0.4-0.4-0.4L11.7-284.7z"/>
	</g>
</g>
<g transform="matrix(-2.990307656966627, -0.0030783453320283507, 0.0030783453320283507, -2.990307656966627, 477.0918454395512, 530.5814623149641)">
	<g>
		<path fill="#CCCCCC" d="M82.8,22.8l1.6,0.4l-1.6,0.4L82.8,22.8z"/>
	</g>
</g>
<g transform="matrix(0.33225658238374106, 0, 0, 0.33225658238374106, 236.20582321133895, 95.32018844182844)">
	<g>
		<path fill="none" stroke="#CCCCCC" stroke-width="3" stroke-linecap="round" stroke-linejoin="round" stroke-miterlimit="10" d="
			M788.9,989.5c-185.4,232-549.4,287.9-812.9,124.9"/>
	</g>
</g>
<g transform="matrix(0.6223334245554977, -0.7786212413728129, 0.7786212413728129, 0.6223334245554977, 817.8657474400629, 484.63092856913454)">
	<g>
		<path fill="#CCCCCC" d="M-152.7-287.9c0.2,0,0.4-0.2,0.4-0.4c0-0.2-0.2-0.4-0.4-0.4L-152.7-287.9z"/>
	</g>
</g>
<g transform="matrix(-2.5432427758448375, -1.572852676710781, 1.572852676710781, -2.5432427758448375, 476.34674220774315, 533.197739549247)">
	<g>
		<path fill="#CCCCCC" d="M82.5-24.8l1.6,0.4L82.5-24L82.5-24.8z"/>
	</g>
</g>
<g transform="matrix(0.33225658238374106, 0, 0, 0.33225658238374106, 236.20582321133895, 95.32018844182844)">
	<g>
		<path fill="none" stroke="#CCCCCC" stroke-width="3" stroke-linecap="round" stroke-linejoin="round" stroke-miterlimit="10" d="
			M-356.2,522.2c219.3,70.7,360.1,318,314.7,552.3"/>
	</g>
</g>
<g transform="matrix(-0.9486378817422761, -0.30600016039120115, 0.30600016039120115, -0.9486378817422761, 343.9485576482162, 291.22028365014285)">
	<g>
		<path fill="#CCCCCC" d="M222.8-47.8c0.2,0,0.4-0.2,0.4-0.4c0-0.2-0.2-0.4-0.4-0.4L222.8-47.8z"/>
	</g>
</g>
<g transform="matrix(-0.5694495778741446, 2.9355879373274067, -2.9355879373274067, -0.5694495778741446, 473.05708974042483, 525.6836790660022)">
	<g>
		<path fill="#CCCCCC" d="M-8.1,86.5l1.6,0.4l-1.6,0.4L-8.1,86.5z"/>
	</g>
</g>
<g transform="matrix(0.33225658238374106, 0, 0, 0.33225658238374106, 236.20582321133895, 95.32018844182844)">
	<g>
		<path fill="none" stroke="#CCCCCC" stroke-width="3" stroke-linecap="round" stroke-linejoin="round" stroke-miterlimit="10" d="
			M445.8,1148.1c-135,108-346.9,94.9-473.4-29.1"/>
	</g>
</g>
<g transform="matrix(0.7783283169479944, -0.6226997349227118, 0.6226997349227118, 0.7783283169479944, 675.876716243401, 550.3026263902943)">
	<g>
		<path fill="#CCCCCC" d="M-182.3-239.9c0.2,0,0.4-0.2,0.4-0.4c0-0.2-0.2-0.4-0.4-0.4L-182.3-239.9z"/>
	</g>
</g>
<g transform="matrix(-2.1350885665597246, -2.093644232545052, 2.093644232545052, -2.1350885665597246, 475.6664720016846, 534.0657355355256)">
	<g>
		<path fill="#CCCCCC" d="M75-42.6l1.6,0.4L75-41.8L75-42.6z"/>
	</g>
</g>
<g transform="matrix(0.33225658238374106, 0, 0, 0.33225658238374106, 236.20582321133895, 95.32018844182844)">
	<g>
		<path fill="none" stroke="#CCCCCC" stroke-width="3" stroke-linecap="round" stroke-linejoin="round" stroke-miterlimit="10" d="
			M956.1,189.3C921.4,667.6,484.4,1075-20,1099.2"/>
	</g>
</g>
<g transform="matrix(0.07214376400533112, -0.9941555241264097, 0.9941555241264097, 0.07214376400533112, 887.0679959183688, 153.45202032923785)">
	<g>
		<path fill="#CCCCCC" d="M-29-332.6c0.2,0,0.4-0.2,0.4-0.4c0-0.2-0.2-0.4-0.4-0.4L-29-332.6z"/>
	</g>
</g>
<g transform="matrix(-2.9868668199162234, 0.14344322781772204, -0.14344322781772204, -2.9868668199162234, 477.0861063884761, 530.3372585939519)">
	<g>
		<path fill="#CCCCCC" d="M81.6,26.9l1.6,0.4l-1.6,0.4L81.6,26.9z"/>
	</g>
</g>
<g transform="matrix(0.33225658238374106, 0, 0, 0.33225658238374106, 236.20582321133895, 95.32018844182844)">
	<g>
		<path fill="none" stroke="#CCCCCC" stroke-width="3" stroke-linecap="round" stroke-linejoin="round" stroke-miterlimit="10" d="
			M235.3,771.3c9.9,150.6-104.6,295.8-255.7,324.3"/>
	</g>
</g>
<g transform="matrix(-0.06541648561485142, -0.9946208384332771, 0.9946208384332771, -0.06541648561485142, 588.7248656113884, 394.3403645410124)">
	<g>
		<path fill="#CCCCCC" d="M60.9-271.4c0.2,0,0.4-0.2,0.4-0.4c0-0.2-0.2-0.4-0.4-0.4L60.9-271.4z"/>
	</g>
</g>
<g transform="matrix(-2.9386742830956614, 0.5533017417245496, -0.5533017417245496, -2.9386742830956614, 477.005779952757, 529.654129002022)">
	<g>
		<path fill="#CCCCCC" d="M77,38l1.6,0.4L77,38.8L77,38z"/>
	</g>
</g>
<g transform="matrix(0.33225658238374106, 0, 0, 0.33225658238374106, 236.20582321133895, 95.32018844182844)">
	<g>
		<path fill="none" stroke="#CCCCCC" stroke-width="3" stroke-linecap="round" stroke-linejoin="round" stroke-miterlimit="10" d="
			M40.5,608.7c98,144.5,67.9,356.8-67.1,474.4"/>
	</g>
</g>
<g transform="matrix(-0.559477560107201, -0.8249453245957619, 0.8249453245957619, -0.559477560107201, 508.13104689430304, 327.04068247176895)">
	<g>
		<path fill="#CCCCCC" d="M170-197.6c0.2,0,0.4-0.2,0.4-0.4c0-0.2-0.2-0.4-0.4-0.4L170-197.6z"/>
	</g>
</g>
<g transform="matrix(-2.255268139612367, 1.963597458231344, -1.963597458231344, -2.255268139612367, 475.8667709680057, 527.3036326984471)">
	<g>
		<path fill="#CCCCCC" d="M46.8,72.4l1.6,0.4l-1.6,0.4L46.8,72.4z"/>
	</g>
</g>
<g transform="matrix(0.33225658238374106, 0, 0, 0.33225658238374106, 236.20582321133895, 95.32018844182844)">
	<g>
		<path fill="none" stroke="#CCCCCC" stroke-width="3" stroke-linecap="round" stroke-linejoin="round" stroke-miterlimit="10" d="
			M-38.2,687.8C60.1,792.4,64,968.1-29.5,1080.1"/>
	</g>
</g>
<g transform="matrix(-0.6827844819256716, -0.7261923161789896, 0.7261923161789896, -0.6827844819256716, 475.52192092018856, 359.77255924502697)">
	<g>
		<path fill="#CCCCCC" d="M199.5-159.1c0.2,0,0.4-0.2,0.4-0.4c0-0.2-0.2-0.4-0.4-0.4L199.5-159.1z"/>
	</g>
</g>
<g transform="matrix(-1.9167134196146112, 2.2952470513198535, -2.2952470513198535, -1.9167134196146112, 475.30251882272705, 526.7508992139836)">
	<g>
		<path fill="#CCCCCC" d="M34.7,79l1.6,0.4l-1.6,0.4L34.7,79z"/>
	</g>
</g>
<g transform="matrix(0.33225658238374106, 0, 0, 0.33225658238374106, 236.20582321133895, 95.32018844182844)">
	<g>
		<path fill="none" stroke="#CCCCCC" stroke-width="3" stroke-linecap="round" stroke-linejoin="round" stroke-miterlimit="10" d="
			M491.1,850.8c-74.7,193.9-303.8,308.6-511.9,256.1"/>
	</g>
</g>
<g transform="matrix(0.3580979900182526, -0.930223499155338, 0.930223499155338, 0.3580979900182526, 694.5906869947157, 427.24404781854)">
	<g>
		<path fill="#CCCCCC" d="M-60.3-293.8c0.2,0,0.4-0.2,0.4-0.4c0-0.2-0.2-0.4-0.4-0.4L-60.3-293.8z"/>
	</g>
</g>
<g transform="matrix(-2.8995214963680613, -0.7312485566636959, 0.7312485566636959, -2.8995214963680613, 476.940541340359, 531.7950586843594)">
	<g>
		<path fill="#CCCCCC" d="M85.9,1.6L87.5,2l-1.6,0.4L85.9,1.6z"/>
	</g>
</g>
<g transform="matrix(0.33225658238374106, 0, 0, 0.33225658238374106, 236.20582321133895, 95.32018844182844)">
	<g>
		<path fill="none" stroke="#CCCCCC" stroke-width="3" stroke-linecap="round" stroke-linejoin="round" stroke-miterlimit="10" d="
			M490,910.6c-88.8,178.5-317.8,267.5-511.6,198.8"/>
	</g>
</g>
<g transform="matrix(0.4438452439682662, -0.8924972427087177, 0.8924972427087177, 0.4438452439682662, 694.1619819073383, 451.9746328678092)">
	<g>
		<path fill="#CCCCCC" d="M-83.2-288.9c0.2,0,0.4-0.2,0.4-0.4c0-0.2-0.2-0.4-0.4-0.4L-83.2-288.9z"/>
	</g>
</g>
<g transform="matrix(-2.8180671316137165, -1.0002234756501467, 1.0002234756501467, -2.8180671316137165, 476.8047712098012, 532.2433536068554)">
	<g>
		<path fill="#CCCCCC" d="M85.7-6.6l1.6,0.4l-1.6,0.4L85.7-6.6z"/>
	</g>
</g>
<g transform="matrix(0.33225658238374106, 0, 0, 0.33225658238374106, 236.20582321133895, 95.32018844182844)">
	<g>
		<path fill="none" stroke="#CCCCCC" stroke-width="3" stroke-linecap="round" stroke-linejoin="round" stroke-miterlimit="10" d="
			M38.7,587.7C95.8,459,253,388.5,389.8,430.4"/>
	</g>
</g>
<g transform="matrix(-0.4043252587303221, 0.9110823310703438, -0.9110823310703438, -0.4043252587303221, 507.3552813118746, 318.36054009499094)">
	<g>
		<path fill="#CCCCCC" d="M79.7,248.6c0.2,0,0.4-0.2,0.4-0.4c0-0.2-0.2-0.4-0.4-0.4L79.7,248.6z"/>
	</g>
</g>
<g transform="matrix(2.8591748914493413, 0.8758243543250358, -0.8758243543250358, 2.8591748914493413, 658.3902534835224, 255.0049245502877)">
	<g>
		<path fill="#CCCCCC" d="M-95.2,22.9l1.6,0.4l-1.6,0.4V22.9z"/>
	</g>
</g>
<g transform="matrix(0.33225658238374106, 0, 0, 0.33225658238374106, 236.20582321133895, 95.32018844182844)">
	<g>
		<path fill="none" stroke="#CCCCCC" stroke-width="3" stroke-linecap="round" stroke-linejoin="round" stroke-miterlimit="10" d="
			M45.7,596.7c44.3-7.5,89.6,18,101,56.9"/>
	</g>
</g>
<g transform="matrix(-0.9829692334378727, 0.16529190830308185, -0.16529190830308185, -0.9829692334378727, 510.24849310969705, 322.0894834612104)">
	<g>
		<path fill="#CCCCCC" d="M251.4,71.7c0.2,0,0.4-0.2,0.4-0.4c0-0.2-0.2-0.4-0.4-0.4L251.4,71.7z"/>
	</g>
</g>
<g transform="matrix(0.8465592700369353, 2.867976074139698, -2.867976074139698, 0.8465592700369353, 553.7612077465475, 351.3616452854686)">
	<g>
		<path fill="#CCCCCC" d="M-37.9,82.1l1.6,0.4l-1.6,0.4L-37.9,82.1z"/>
	</g>
</g>
<g transform="matrix(0.33225658238374106, 0, 0, 0.33225658238374106, 236.20582321133895, 95.32018844182844)">
	<g>
		<path fill="none" stroke="#CCCCCC" stroke-width="3" stroke-linecap="round" stroke-linejoin="round" stroke-miterlimit="10" d="
			M45.3,595.3c284.9-85.3,616.4,76.1,740.5,360.5"/>
	</g>
</g>
<g transform="matrix(-0.9548766836873623, 0.2859378390247406, -0.2859378390247406, -0.9548766836873623, 510.10803845335005, 321.4862544390188)">
	<g>
		<path fill="#CCCCCC" d="M240.6,102.2c0.2,0,0.4-0.2,0.4-0.4c0-0.2-0.2-0.4-0.4-0.4L240.6,102.2z"/>
	</g>
</g>
<g transform="matrix(1.1957505614228814, 2.7408265093544477, -2.7408265093544477, 1.1957505614228814, 818.9844770923934, 476.16978270316974)">
	<g>
		<path fill="#CCCCCC" d="M-62.4,89.7l1.6,0.4l-1.6,0.4L-62.4,89.7z"/>
	</g>
</g>
<g transform="matrix(0.33225658238374106, 0, 0, 0.33225658238374106, 236.20582321133895, 95.32018844182844)">
	<g>
		<path fill="none" stroke="#CCCCCC" stroke-width="3" stroke-linecap="round" stroke-linejoin="round" stroke-miterlimit="10" d="
			M23.6,605.1c-118.2,73.7-285.9,44.1-374.6-66"/>
	</g>
</g>
<g transform="matrix(0.845995270036026, -0.5271071351372365, 0.5271071351372365, 0.845995270036026, 501.10367010982696, 325.5514899747738)">
	<g>
		<path fill="#CCCCCC" d="M-203.4-160.8c0.2,0,0.4-0.2,0.4-0.4c0-0.2-0.2-0.4-0.4-0.4L-203.4-160.8z"/>
	</g>
</g>
<g transform="matrix(-1.8747762769705894, -2.329627281526278, 2.329627281526278, -1.8747762769705894, 342.32999315004207, 293.573010680284)">
	<g>
		<path fill="#CCCCCC" d="M51.7-54.4l1.6,0.4l-1.6,0.4L51.7-54.4z"/>
	</g>
</g>
<g transform="matrix(0.33225658238374106, 0, 0, 0.33225658238374106, 236.20582321133895, 95.32018844182844)">
	<g>
		<path fill="none" stroke="#CCCCCC" stroke-width="3" stroke-linecap="round" stroke-linejoin="round" stroke-miterlimit="10" d="
			M45.7,600.6c235.3,36.8,419.1,266.7,410.5,513.5"/>
	</g>
</g>
<g transform="matrix(-0.9847963957957314, -0.15403242406600712, 0.15403242406600712, -0.9847963957957314, 510.2576390886189, 323.6861158613714)">
	<g>
		<path fill="#CCCCCC" d="M261.1-11.2c0.2,0,0.4-0.2,0.4-0.4c0-0.2-0.2-0.4-0.4-0.4L261.1-11.2z"/>
	</g>
</g>
<g transform="matrix(-0.10381695018671062, 2.9885065501646726, -2.9885065501646726, -0.10381695018671062, 679.9413839578483, 542.2082930891585)">
	<g>
		<path fill="#CCCCCC" d="M-22.2,98.1l1.6,0.4l-1.6,0.4L-22.2,98.1z"/>
	</g>
</g>
<g transform="matrix(0.33225658238374106, 0, 0, 0.33225658238374106, 236.20582321133895, 95.32018844182844)">
	<g>
		<path fill="none" stroke="#CCCCCC" stroke-width="3" stroke-linecap="round" stroke-linejoin="round" stroke-miterlimit="10" d="
			M38.3,587.6C172.7,258.8,572.6,71.9,931.4,170.3"/>
	</g>
</g>
<g transform="matrix(-0.37705337016504503, 0.9227029234174426, -0.9227029234174426, -0.37705337016504503, 507.2189230806766, 318.3024398076051)">
	<g>
		<path fill="#CCCCCC" d="M72.2,250.8c0.2,0,0.4-0.2,0.4-0.4c0-0.2-0.2-0.4-0.4-0.4L72.2,250.8z"/>
	</g>
</g>
<g transform="matrix(2.8839550581879765, 0.7904129185907867, -0.7904129185907867, 2.8839550581879765, 882.6221173130739, 147.16388604950026)">
	<g>
		<path fill="#CCCCCC" d="M-108.3,30.9l1.6,0.4l-1.6,0.4L-108.3,30.9z"/>
	</g>
</g>
<g transform="matrix(0.33225658238374106, 0, 0, 0.33225658238374106, 236.20582321133895, 95.32018844182844)">
	<g>
		<path fill="none" stroke="#CCCCCC" stroke-width="3" stroke-linecap="round" stroke-linejoin="round" stroke-miterlimit="10" d="
			M45.8,597.8c84.7-6.8,166.8,53.9,183.4,135.6"/>
	</g>
</g>
<g transform="matrix(-0.9935929999877551, 0.07951653420041649, -0.07951653420041649, -0.9935929999877551, 510.3016249606398, 322.51837106257966)">
	<g>
		<path fill="#CCCCCC" d="M256.6,49.7c0.2,0,0.4-0.2,0.4-0.4c0-0.2-0.2-0.4-0.4-0.4L256.6,49.7z"/>
	</g>
</g>
<g transform="matrix(0.5949256750242284, 2.930531146519379, -2.930531146519379, 0.5949256750242284, 587.4062628587178, 384.483047475867)">
	<g>
		<path fill="#CCCCCC" d="M-33.2,86.7l1.6,0.4l-1.6,0.4L-33.2,86.7z"/>
	</g>
</g>
<g transform="matrix(0.33225658238374106, 0, 0, 0.33225658238374106, 236.20582321133895, 95.32018844182844)">
	<g>
		<path fill="none" stroke="#CCCCCC" stroke-width="3" stroke-linecap="round" stroke-linejoin="round" stroke-miterlimit="10" d="
			M-378.6,513.6c-143.8-62.7-223.1-237.9-177.2-391.3"/>
	</g>
</g>
<g transform="matrix(0.913639105538417, 0.39851413233017835, -0.39851413233017835, 0.913639105538417, 334.63717035150717, 287.6977230499707)">
	<g>
		<path fill="#CCCCCC" d="M-214.9,70.4c0.2,0,0.4-0.2,0.4-0.4c0-0.2-0.2-0.4-0.4-0.4L-214.9,70.4z"/>
	</g>
</g>
<g transform="matrix(0.8575956796461904, -2.8646952734584894, 2.8646952734584894, 0.8575956796461904, 263.0183073411848, 120.03007589744549)">
	<g>
		<path fill="#CCCCCC" d="M-25.4-66.6l1.6,0.4l-1.6,0.4L-25.4-66.6z"/>
	</g>
</g>
<g transform="matrix(0.33225658238374106, 0, 0, 0.33225658238374106, 236.20582321133895, 95.32018844182844)">
	<g>
		<path fill="none" stroke="#CCCCCC" stroke-width="3" stroke-linecap="round" stroke-linejoin="round" stroke-miterlimit="10" d="
			M-359.7,509.4c179.4-207,516.4-245.5,752.9-86"/>
	</g>
</g>
<g transform="matrix(-0.6527389637216979, 0.7533138615978319, -0.7533138615978319, -0.6527389637216979, 342.46905867211825, 285.9237276084567)">
	<g>
		<path fill="#CCCCCC" d="M132.1,185.6c0.2,0,0.4-0.2,0.4-0.4c0-0.2-0.2-0.4-0.4-0.4L132.1,185.6z"/>
	</g>
</g>
<g transform="matrix(2.478829084933346, 1.6725297388123574, -1.6725297388123574, 2.478829084933346, 659.0241448563343, 253.6770845616994)">
	<g>
		<path fill="#CCCCCC" d="M-84.3,49.3l1.6,0.4l-1.6,0.4L-84.3,49.3z"/>
	</g>
</g>
<g transform="matrix(0.33225658238374106, 0, 0, 0.33225658238374106, 236.20582321133895, 95.32018844182844)">
	<g>
		<path fill="none" stroke="#CCCCCC" stroke-width="3" stroke-linecap="round" stroke-linejoin="round" stroke-miterlimit="10" d="
			M-356.8,513.2c168.8-82.8,391.1-18.5,496.6,143.7"/>
	</g>
</g>
<g transform="matrix(-0.8948766458066604, 0.4390281512907054, -0.4390281512907054, -0.8948766458066604, 343.6797449573112, 287.49515279841853)">
	<g>
		<path fill="#CCCCCC" d="M194,119.8c0.2,0,0.4-0.2,0.4-0.4c0-0.2-0.2-0.4-0.4-0.4L194,119.8z"/>
	</g>
</g>
<g transform="matrix(1.6300703367399665, 2.506954338795119, -2.506954338795119, 1.6300703367399665, 552.4553606939696, 351.9633533577286)">
	<g>
		<path fill="#CCCCCC" d="M-60,68.2l1.6,0.4L-60,69L-60,68.2z"/>
	</g>
</g>
<g transform="matrix(0.33225658238374106, 0, 0, 0.33225658238374106, 236.20582321133895, 95.32018844182844)">
	<g>
		<path fill="none" stroke="#CCCCCC" stroke-width="3" stroke-linecap="round" stroke-linejoin="round" stroke-miterlimit="10" d="
			M-356.4,514.2c239.7-91.3,534.6,25.9,658.8,261.8"/>
	</g>
</g>
<g transform="matrix(-0.9314642219127255, 0.35485818594536367, -0.35485818594536367, -0.9314642219127255, 343.86268481507994, 287.9159895048167)">
	<g>
		<path fill="#CCCCCC" d="M204.2,101.5c0.2,0,0.4-0.2,0.4-0.4c0-0.2-0.2-0.4-0.4-0.4L204.2,101.5z"/>
	</g>
</g>
<g transform="matrix(1.3925762090464477, 2.6462578977720685, -2.6462578977720685, 1.3925762090464477, 619.3024891809087, 401.5696626384031)">
	<g>
		<path fill="#CCCCCC" d="M-58.3,75.7l1.6,0.4l-1.6,0.4L-58.3,75.7z"/>
	</g>
</g>
<g transform="matrix(0.33225658238374106, 0, 0, 0.33225658238374106, 236.20582321133895, 95.32018844182844)">
	<g>
		<path fill="none" stroke="#CCCCCC" stroke-width="3" stroke-linecap="round" stroke-linejoin="round" stroke-miterlimit="10" d="
			M-356.4,514c409-162,919.5,36.3,1140.2,442.8"/>
	</g>
</g>
<g transform="matrix(-0.9267442701364036, 0.3670081560473258, -0.3670081560473258, -0.9267442701364036, 343.83908981180826, 287.8552529042161)">
	<g>
		<path fill="#CCCCCC" d="M202.8,104.2c0.2,0,0.4-0.2,0.4-0.4c0-0.2-0.2-0.4-0.4-0.4L202.8,104.2z"/>
	</g>
</g>
<g transform="matrix(1.427060769019549, 2.6278217064802076, -2.6278217064802076, 1.427060769019549, 818.5989669830724, 476.3581371426949)">
	<g>
		<path fill="#CCCCCC" d="M-69.9,84.1l1.6,0.4l-1.6,0.4L-69.9,84.1z"/>
	</g>
</g>
<g transform="matrix(0.33225658238374106, 0, 0, 0.33225658238374106, 236.20582321133895, 95.32018844182844)">
	<g>
		<path fill="none" stroke="#CCCCCC" stroke-width="3" stroke-linecap="round" stroke-linejoin="round" stroke-miterlimit="10" d="
			M443.3,1141.9C84.1,1180.5-276.2,913-361.6,544.3"/>
	</g>
</g>
<g transform="matrix(0.9910470477944706, -0.10665682300620857, 0.10665682300620857, 0.9910470477944706, 674.8131058165907, 547.7224058090558)">
	<g>
		<path fill="#CCCCCC" d="M-282.8-103.7c0.2,0,0.4-0.2,0.4-0.4c0-0.2-0.2-0.4-0.4-0.4L-282.8-103.7z"/>
	</g>
</g>
<g transform="matrix(-0.6748392831257369, -2.9131668852768393, 2.9131668852768393, -0.6748392831257369, 340.3300960850257, 294.54556690452466)">
	<g>
		<path fill="#CCCCCC" d="M22.9-72.1l1.6,0.4l-1.6,0.4L22.9-72.1z"/>
	</g>
</g>
<g transform="matrix(0.33225658238374106, 0, 0, 0.33225658238374106, 236.20582321133895, 95.32018844182844)">
	<g>
		<path fill="none" stroke="#CCCCCC" stroke-width="3" stroke-linecap="round" stroke-linejoin="round" stroke-miterlimit="10" d="
			M950.5,187.4C693.3,594,113.9,747.3-343.7,529.8"/>
	</g>
</g>
<g transform="matrix(0.5329288293736303, -0.8423400688904484, 0.8423400688904484, 0.5329288293736303, 884.7640609620323, 152.6929395675587)">
	<g>
		<path fill="#CCCCCC" d="M-182.6-279.1c0.2,0,0.4-0.2,0.4-0.4c0-0.2-0.2-0.4-0.4-0.4L-182.6-279.1z"/>
	</g>
</g>
<g transform="matrix(-2.7007921352886015, -1.283616454197459, 1.283616454197459, -2.7007921352886015, 343.7066860504323, 291.829657310058)">
	<g>
		<path fill="#CCCCCC" d="M69.9-26l1.6,0.4l-1.6,0.4L69.9-26z"/>
	</g>
</g>
<g transform="matrix(0.33225658238374106, 0, 0, 0.33225658238374106, 236.20582321133895, 95.32018844182844)">
	<g>
		<path fill="none" stroke="#CCCCCC" stroke-width="3" stroke-linecap="round" stroke-linejoin="round" stroke-miterlimit="10" d="
			M-58,682.5c-116.3,34.8-250.1-27.7-299-139.7"/>
	</g>
</g>
<g transform="matrix(0.9548766675052875, -0.2859378930640528, 0.2859378930640528, 0.9548766675052875, 467.3336131926143, 357.57129854873745)">
	<g>
		<path fill="#CCCCCC" d="M-230.4-105.8c0.2,0,0.4-0.2,0.4-0.4c0-0.2-0.2-0.4-0.4-0.4L-230.4-105.8z"/>
	</g>
</g>
<g transform="matrix(-1.1957506266253022, -2.740826480908344, 2.740826480908344, -1.1957506266253022, 341.19828472496226, 294.2583304401153)">
	<g>
		<path fill="#CCCCCC" d="M35.6-66.5l1.6,0.4l-1.6,0.4L35.6-66.5z"/>
	</g>
</g>
<g transform="matrix(0.33225658238374106, 0, 0, 0.33225658238374106, 236.20582321133895, 95.32018844182844)">
	<g>
		<path fill="none" stroke="#CCCCCC" stroke-width="3" stroke-linecap="round" stroke-linejoin="round" stroke-miterlimit="10" d="
			M484.3,844.2c-296.5,124.8-672-10.8-838.8-302.8"/>
	</g>
</g>
<g transform="matrix(0.9187133138426348, -0.38667269855033426, 0.38667269855033426, 0.9187133138426348, 691.7876371088365, 424.526292804823)">
	<g>
		<path fill="#CCCCCC" d="M-253.5-159.3c0.2,0,0.4-0.2,0.4-0.4c0-0.2-0.2-0.4-0.4-0.4L-253.5-159.3z"/>
	</g>
</g>
<g transform="matrix(-1.4827330434556827, -2.5968157580713864, 2.5968157580713864, -1.4827330434556827, 341.676582919775, 294.01832454091414)">
	<g>
		<path fill="#CCCCCC" d="M42.5-62.1l1.6,0.4l-1.6,0.4L42.5-62.1z"/>
	</g>
</g>
<g transform="matrix(0.33225658238374106, 0, 0, 0.33225658238374106, 236.20582321133895, 95.32018844182844)">
	<g>
		<path fill="none" stroke="#CCCCCC" stroke-width="3" stroke-linecap="round" stroke-linejoin="round" stroke-miterlimit="10" d="
			M-499.3,510.2c31.7-29.8,81.5-33.7,111.4-8.7"/>
	</g>
</g>
<g transform="matrix(-0.7261923895194172, 0.6827844039226382, -0.6827844039226382, -0.7261923895194172, 284.691425604772, 286.2763649199235)">
	<g>
		<path fill="#CCCCCC" d="M142,163.4c0.2,0,0.4-0.2,0.4-0.4c0-0.2-0.2-0.4-0.4-0.4L142,163.4z"/>
	</g>
</g>
<g transform="matrix(2.295246999385591, 1.9167134818054214, -1.9167134818054214, 2.295246999385591, 335.3799515997531, 286.495767017385)">
	<g>
		<path fill="#CCCCCC" d="M-63.8,42.2l1.6,0.4l-1.6,0.4L-63.8,42.2z"/>
	</g>
</g>
<g transform="matrix(0.33225658238374106, 0, 0, 0.33225658238374106, 236.20582321133895, 95.32018844182844)">
	<g>
		<path fill="none" stroke="#CCCCCC" stroke-width="3" stroke-linecap="round" stroke-linejoin="round" stroke-miterlimit="10" d="
			M-517.1,510.5c-108.4-95.3-129-270.6-46.1-391.7"/>
	</g>
</g>
<g transform="matrix(0.7485584147272637, 0.6581870771877242, -0.6581870771877242, 0.7485584147272637, 277.3176702177976, 286.3993590710561)">
	<g>
		<path fill="#CCCCCC" d="M-174.6,125.3c0.2,0,0.4-0.2,0.4-0.4c0-0.2-0.2-0.4-0.4-0.4L-174.6,125.3z"/>
	</g>
</g>
<g transform="matrix(1.6904694618101606, -2.4666297570187723, 2.4666297570187723, 1.6904694618101606, 261.63018450205885, 119.3666324674632)">
	<g>
		<path fill="#CCCCCC" d="M-44.4-56.1l1.6,0.4l-1.6,0.4L-44.4-56.1z"/>
	</g>
</g>
<g transform="matrix(0.33225658238374106, 0, 0, 0.33225658238374106, 236.20582321133895, 95.32018844182844)">
	<g>
		<path fill="none" stroke="#CCCCCC" stroke-width="3" stroke-linecap="round" stroke-linejoin="round" stroke-miterlimit="10" d="
			M-497.1,513.6c445.6-196,1018.6,2.6,1280,443.7"/>
	</g>
</g>
<g transform="matrix(-0.912360021675327, 0.40143382977087294, -0.40143382977087294, -0.912360021675327, 285.6222621723898, 287.68312193062764)">
	<g>
		<path fill="#CCCCCC" d="M188.3,107c0.2,0,0.4-0.2,0.4-0.4c0-0.2-0.2-0.4-0.4-0.4L188.3,107z"/>
	</g>
</g>
<g transform="matrix(1.5244056660774676, 2.572573949326653, -2.572573949326653, 1.5244056660774676, 818.4367323237053, 476.4502053118857)">
	<g>
		<path fill="#CCCCCC" d="M-73.1,81.5l1.6,0.4l-1.6,0.4L-73.1,81.5z"/>
	</g>
</g>
<g transform="matrix(0.33225658238374106, 0, 0, 0.33225658238374106, 236.20582321133895, 95.32018844182844)">
	<g>
		<path fill="none" stroke="#CCCCCC" stroke-width="3" stroke-linecap="round" stroke-linejoin="round" stroke-miterlimit="10" d="
			M-501.4,508.4c293.6-441,935.9-594.6,1434.7-343.1"/>
	</g>
</g>
<g transform="matrix(-0.552406584463074, 0.8296968689092143, -0.8296968689092143, -0.552406584463074, 283.822496769202, 285.54180694097425)">
	<g>
		<path fill="#CCCCCC" d="M101.3,191.1c0.2,0,0.4-0.2,0.4-0.4c0-0.2-0.2-0.4-0.4-0.4L101.3,191.1z"/>
	</g>
</g>
<g transform="matrix(2.670157384189094, 1.3461830867989963, -1.3461830867989963, 2.670157384189094, 882.9784657423736, 146.2376021920109)">
	<g>
		<path fill="#CCCCCC" d="M-99.9,51.5l1.6,0.4l-1.6,0.4L-99.9,51.5z"/>
	</g>
</g>
<g transform="matrix(0.33225658238374106, 0, 0, 0.33225658238374106, 236.20582321133895, 95.32018844182844)">
	<g>
		<path fill="none" stroke="#CCCCCC" stroke-width="3" stroke-linecap="round" stroke-linejoin="round" stroke-miterlimit="10" d="
			M222.5,759.9C-136,778.7-479,493.6-543.7,123.1"/>
	</g>
</g>
<g transform="matrix(0.995404598523364, -0.05214991921809588, 0.05214991921809588, 0.995404598523364, 583.4207656580418, 389.628015507707)">
	<g>
		<path fill="#CCCCCC" d="M-271.6-55.8c0.2,0,0.4-0.2,0.4-0.4c0-0.2-0.2-0.4-0.4-0.4L-271.6-55.8z"/>
	</g>
</g>
<g transform="matrix(-0.5140737776965094, -2.9457897940294484, 2.9457897940294484, -0.5140737776965094, 265.30442183415647, 120.16523257819756)">
	<g>
		<path fill="#CCCCCC" d="M6.8-70.4L8.4-70l-1.6,0.4L6.8-70.4z"/>
	</g>
</g>
<g transform="matrix(0.33225658238374106, 0, 0, 0.33225658238374106, 236.20582321133895, 95.32018844182844)">
	<g>
		<path fill="none" stroke="#CCCCCC" stroke-width="3" stroke-linecap="round" stroke-linejoin="round" stroke-miterlimit="10" d="
			M222.4,758.9c-33.8-1-63.3-25-65.9-53.5"/>
	</g>
</g>
<g transform="matrix(0.9962970562371584, 0.030693721981637702, -0.030693721981637702, 0.9962970562371584, 583.4163042049092, 389.213789863678)">
	<g>
		<path fill="#CCCCCC" d="M-275.3-33c0.2,0,0.4-0.2,0.4-0.4c0-0.2-0.2-0.4-0.4-0.4L-275.3-33z"/>
	</g>
</g>
<g transform="matrix(-0.26766427880070287, -2.978305758879924, 2.978305758879924, -0.26766427880070287, 555.6182470543249, 361.1054386477218)">
	<g>
		<path fill="#CCCCCC" d="M18.5-88.5l1.6,0.4l-1.6,0.4L18.5-88.5z"/>
	</g>
</g>
<g transform="matrix(0.33225658238374106, 0, 0, 0.33225658238374106, 236.20582321133895, 95.32018844182844)">
	<g>
		<path fill="none" stroke="#CCCCCC" stroke-width="3" stroke-linecap="round" stroke-linejoin="round" stroke-miterlimit="10" d="
			M246,755.8c24.3-7.3,50.3,1.4,58.1,19.3"/>
	</g>
</g>
<g transform="matrix(-0.9548767302682857, 0.28593768346977444, -0.28593768346977444, -0.9548767302682857, 593.1722043286177, 387.9375709157671)">
	<g>
		<path fill="#CCCCCC" d="M252.6,119.5c0.2,0,0.4-0.2,0.4-0.4s-0.2-0.4-0.4-0.4L252.6,119.5z"/>
	</g>
</g>
<g transform="matrix(1.1957504459123187, 2.7408265597486663, -2.7408265597486663, 1.1957504459123187, 619.6305276621488, 401.412051666828)">
	<g>
		<path fill="#CCCCCC" d="M-52.6,79.7l1.6,0.4l-1.6,0.4L-52.6,79.7z"/>
	</g>
</g>
<g transform="matrix(0.33225658238374106, 0, 0, 0.33225658238374106, 236.20582321133895, 95.32018844182844)">
	<g>
		<path fill="none" stroke="#CCCCCC" stroke-width="3" stroke-linecap="round" stroke-linejoin="round" stroke-miterlimit="10" d="
			M236.1,747.4c44.6-321.1,355.5-576.5,694.4-570.6"/>
	</g>
</g>
<g transform="matrix(-0.13719432691256378, 0.9872829612116893, -0.9872829612116893, -0.13719432691256378, 589.0837692365733, 384.4308484742156)">
	<g>
		<path fill="#CCCCCC" d="M-2.6,278.7c0.2,0,0.4-0.2,0.4-0.4c0-0.2-0.2-0.4-0.4-0.4L-2.6,278.7z"/>
	</g>
</g>
<g transform="matrix(2.989843553490733, 0.05277201126663223, -0.05277201126663223, 2.989843553490733, 882.4456465623473, 148.39329015851763)">
	<g>
		<path fill="#CCCCCC" d="M-112.7,3.5l1.6,0.4l-1.6,0.4L-112.7,3.5z"/>
	</g>
</g>
<g transform="matrix(0.33225658238374106, 0, 0, 0.33225658238374106, 236.20582321133895, 95.32018844182844)">
	<g>
		<path fill="none" stroke="#CCCCCC" stroke-width="3" stroke-linecap="round" stroke-linejoin="round" stroke-miterlimit="10" d="
			M-35.8,673.5c86.7-44.7,201-16.1,255.4,63.9"/>
	</g>
</g>
<g transform="matrix(-0.8858267347483345, 0.457013046685778, -0.457013046685778, -0.8858267347483345, 476.5371245805104, 353.85653043588013)">
	<g>
		<path fill="#CCCCCC" d="M208.9,147.4c0.2,0,0.4-0.2,0.4-0.4c0-0.2-0.2-0.4-0.4-0.4L208.9,147.4z"/>
	</g>
</g>
<g transform="matrix(1.6803729697092293, 2.4735189593358298, -2.4735189593358298, 1.6803729697092293, 585.5971841721157, 385.2447392015953)">
	<g>
		<path fill="#CCCCCC" d="M-64.4,67.6l1.6,0.4l-1.6,0.4L-64.4,67.6z"/>
	</g>
</g>
<g transform="matrix(0.33225658238374106, 0, 0, 0.33225658238374106, 236.20582321133895, 95.32018844182844)">
	<g>
		<path fill="none" stroke="#CCCCCC" stroke-width="3" stroke-linecap="round" stroke-linejoin="round" stroke-miterlimit="10" d="
			M484.6,844.9c-81.4,39.9-186.9,11.6-235.7-63.4"/>
	</g>
</g>
<g transform="matrix(0.8948766369756929, -0.439028169290978, 0.439028169290978, 0.8948766369756929, 691.9067984661416, 424.7880584277118)">
	<g>
		<path fill="#CCCCCC" d="M-243.9-173.7c0.2,0,0.4-0.2,0.4-0.4c0-0.2-0.2-0.4-0.4-0.4L-243.9-173.7z"/>
	</g>
</g>
<g transform="matrix(-1.6300708050430293, -2.506954034295322, 2.506954034295322, -1.6300708050430293, 591.1145821438653, 393.54551610677584)">
	<g>
		<path fill="#CCCCCC" d="M60.4-69.7l1.6,0.4l-1.6,0.4L60.4-69.7z"/>
	</g>
</g>
<g transform="matrix(0.33225658238374106, 0, 0, 0.33225658238374106, 236.20582321133895, 95.32018844182844)">
	<g>
		<path fill="none" stroke="#CCCCCC" stroke-width="3" stroke-linecap="round" stroke-linejoin="round" stroke-miterlimit="10" d="
			M-58.5,677.8c-265.9-28-485-276.1-489.3-554.3"/>
	</g>
</g>
<g transform="matrix(0.9913075015166, 0.10420828312965089, -0.10420828312965089, 0.9913075015166, 467.1514642288099, 355.6205687251754)">
	<g>
		<path fill="#CCCCCC" d="M-253.5-8.4c0.2,0,0.4-0.2,0.4-0.4c0-0.2-0.2-0.4-0.4-0.4L-253.5-8.4z"/>
	</g>
</g>
<g transform="matrix(-0.04691969861368073, -2.989941120056584, 2.989941120056584, -0.04691969861368073, 264.5258323546884, 120.23881867080328)">
	<g>
		<path fill="#CCCCCC" d="M-4.3-70.8l1.6,0.4L-4.3-70L-4.3-70.8z"/>
	</g>
</g>
<g transform="matrix(0.33225658238374106, 0, 0, 0.33225658238374106, 236.20582321133895, 95.32018844182844)">
	<g>
		<path fill="none" stroke="#CCCCCC" stroke-width="3" stroke-linecap="round" stroke-linejoin="round" stroke-miterlimit="10" d="
			M-37.7,670.8c47.3-44.5,124.1-48.4,171.6-8.7"/>
	</g>
</g>
<g transform="matrix(-0.7261924431144815, 0.6827843469202661, -0.6827843469202661, -0.7261924431144815, 475.73895033575684, 352.72768139667164)">
	<g>
		<path fill="#CCCCCC" d="M160.5,198.9c0.2,0,0.4-0.2,0.4-0.4c0-0.2-0.2-0.4-0.4-0.4L160.5,198.9z"/>
	</g>
</g>
<g transform="matrix(2.295247110512773, 1.9167133487316215, -1.9167133487316215, 2.295247110512773, 551.3467301491847, 352.94708349413327)">
	<g>
		<path fill="#CCCCCC" d="M-77.5,47.9l1.6,0.4l-1.6,0.4L-77.5,47.9z"/>
	</g>
</g>
<g transform="matrix(0.33225658238374106, 0, 0, 0.33225658238374106, 236.20582321133895, 95.32018844182844)">
	<g>
		<path fill="none" stroke="#CCCCCC" stroke-width="3" stroke-linecap="round" stroke-linejoin="round" stroke-miterlimit="10" d="
			M404.1,443c-327.5,144-747.8-0.7-938.8-323.2"/>
	</g>
</g>
<g transform="matrix(0.9124743280899417, -0.4011739390996415, 0.4011739390996415, 0.9124743280899417, 658.5931684837258, 258.4705002263572)">
	<g>
		<path fill="#CCCCCC" d="M-258.2-130.6c0.2,0,0.4-0.2,0.4-0.4c0-0.2-0.2-0.4-0.4-0.4L-258.2-130.6z"/>
	</g>
</g>
<g transform="matrix(-1.5236729807519638, -2.573007968749737, 2.573007968749737, -1.5236729807519638, 266.98708676719644, 119.54392960098588)">
	<g>
		<path fill="#CCCCCC" d="M31-63l1.6,0.4L31-62.2L31-63z"/>
	</g>
</g>
<g transform="matrix(0.33225658238374106, 0, 0, 0.33225658238374106, 236.20582321133895, 95.32018844182844)">
	<g>
		<path fill="none" stroke="#CCCCCC" stroke-width="3" stroke-linecap="round" stroke-linejoin="round" stroke-miterlimit="10" d="
			M155.1,667c8.5-119.7,113.1-221.5,233.6-227.5"/>
	</g>
</g>
<g transform="matrix(-0.07048947099969055, 0.9942741892024036, -0.9942741892024036, -0.07048947099969055, 555.5245970972053, 351.1702286667479)">
	<g>
		<path fill="#CCCCCC" d="M-15.3,270.8c0.2,0,0.4-0.2,0.4-0.4s-0.2-0.4-0.4-0.4L-15.3,270.8z"/>
	</g>
</g>
<g transform="matrix(2.9866240239724156, -0.1484125970193777, 0.1484125970193777, 2.9866240239724156, 658.1778071970812, 256.71198805514655)">
	<g>
		<path fill="#CCCCCC" d="M-97.6-10.4l1.6,0.4l-1.6,0.4V-10.4z"/>
	</g>
</g>
<g transform="matrix(0.33225658238374106, 0, 0, 0.33225658238374106, 236.20582321133895, 95.32018844182844)">
	<g>
		<path fill="none" stroke="#CCCCCC" stroke-width="3" stroke-linecap="round" stroke-linejoin="round" stroke-miterlimit="10" d="
			M309.2,788.8c-59.1-112.5-21.4-262.7,84.1-335.5"/>
	</g>
</g>
<g transform="matrix(0.4635142740462952, 0.8824423191298394, -0.8824423191298394, 0.4635142740462952, 619.3058961087553, 401.5678780571501)">
	<g>
		<path fill="#CCCCCC" d="M-170,228.8c0.2,0,0.4-0.2,0.4-0.4c0-0.2-0.2-0.4-0.4-0.4L-170,228.8z"/>
	</g>
</g>
<g transform="matrix(2.4610966946262844, -1.6985147686207502, 1.6985147686207502, 2.4610966946262844, 659.053712123004, 259.29549388823733)">
	<g>
		<path fill="#CCCCCC" d="M-77.9-59.6l1.6,0.4l-1.6,0.4L-77.9-59.6z"/>
	</g>
</g>
<g transform="matrix(0.33225658238374106, 0, 0, 0.33225658238374106, 236.20582321133895, 95.32018844182844)">
	<g>
		<path fill="none" stroke="#CCCCCC" stroke-width="3" stroke-linecap="round" stroke-linejoin="round" stroke-miterlimit="10" d="
			M784.6,977.6c-224.9-46.3-391.3-276-371.7-513"/>
	</g>
</g>
<g transform="matrix(0.9763043963798455, 0.20094689458983692, -0.20094689458983692, 0.9763043963798455, 816.0958889823629, 479.7331047615079)">
	<g>
		<path fill="#CCCCCC" d="M-325.7,6.4c0.2,0,0.4-0.2,0.4-0.4c0-0.2-0.2-0.4-0.4-0.4L-325.7,6.4z"/>
	</g>
</g>
<g transform="matrix(0.2466011669116383, -2.980123692735092, 2.980123692735092, 0.2466011669116383, 662.7445100649397, 261.4315058324627)">
	<g>
		<path fill="#CCCCCC" d="M-4.1-97.2l1.6,0.4l-1.6,0.4L-4.1-97.2z"/>
	</g>
</g>
<g transform="matrix(0.33225658238374106, 0, 0, 0.33225658238374106, 236.20582321133895, 95.32018844182844)">
	<g>
		<path fill="none" stroke="#CCCCCC" stroke-width="3" stroke-linecap="round" stroke-linejoin="round" stroke-miterlimit="10" d="
			M952.7,188.5C878,382.4,648.8,497.1,440.8,444.7"/>
	</g>
</g>
<g transform="matrix(0.358098011777772, -0.9302234907788126, 0.9302234907788126, 0.358098011777772, 885.6382218653669, 153.1323572122875)">
	<g>
		<path fill="#CCCCCC" d="M-124.5-309.5c0.2,0,0.4-0.2,0.4-0.4c0-0.2-0.2-0.4-0.4-0.4L-124.5-309.5z"/>
	</g>
</g>
<g transform="matrix(-2.8995216043354386, -0.7312481285550496, 0.7312481285550496, -2.8995216043354386, 667.9880559316778, 257.68337821777305)">
	<g>
		<path fill="#CCCCCC" d="M93.7-19l1.6,0.4l-1.6,0.4L93.7-19z"/>
	</g>
</g>
<g transform="matrix(0.33225658238374106, 0, 0, 0.33225658238374106, 236.20582321133895, 95.32018844182844)">
	<g>
		<path fill="none" stroke="#CCCCCC" stroke-width="3" stroke-linecap="round" stroke-linejoin="round" stroke-miterlimit="10" d="
			M485.6,832.6c-113.5-80.8-150.7-247-83.1-371.1"/>
	</g>
</g>
<g transform="matrix(0.8119432918295639, 0.5781851084980357, -0.5781851084980357, 0.8119432918295639, 692.3214702554837, 419.7020018565545)">
	<g>
		<path fill="#CCCCCC" d="M-268.7,132.9c0.2,0,0.4-0.2,0.4-0.4c0-0.2-0.2-0.4-0.4-0.4L-268.7,132.9z"/>
	</g>
</g>
<g transform="matrix(1.4293575207439986, -2.626573135744709, 2.626573135744709, 1.4293575207439986, 660.7732778363003, 260.84224927030914)">
	<g>
		<path fill="#CCCCCC" d="M-42.9-87.8l1.6,0.4l-1.6,0.4L-42.9-87.8z"/>
	</g>
</g>
<g transform="matrix(0.33225658238374106, 0, 0, 0.33225658238374106, 236.20582321133895, 95.32018844182844)">
	<g>
		<path fill="none" stroke="#CCCCCC" stroke-width="3" stroke-linecap="round" stroke-linejoin="round" stroke-miterlimit="10" d="
			M142.2,679.8c-318,20-625-229.3-685.6-556.7"/>
	</g>
</g>
<g transform="matrix(0.9948124414547801, -0.0624350475509791, 0.0624350475509791, 0.9948124414547801, 550.1980884815335, 356.45378565635224)">
	<g>
		<path fill="#CCCCCC" d="M-264.9-51.7c0.2,0,0.4-0.2,0.4-0.4c0-0.2-0.2-0.4-0.4-0.4L-264.9-51.7z"/>
	</g>
</g>
<g transform="matrix(-0.5444921211526693, -2.9403193176126106, 2.9403193176126106, -0.5444921211526693, 265.3551201652087, 120.15611448335781)">
	<g>
		<path fill="#CCCCCC" d="M7.5-70.3l1.6,0.4l-1.6,0.4L7.5-70.3z"/>
	</g>
</g>
<g transform="matrix(0.33225658238374106, 0, 0, 0.33225658238374106, 236.20582321133895, 95.32018844182844)">
	<g>
		<path fill="none" stroke="#CCCCCC" stroke-width="3" stroke-linecap="round" stroke-linejoin="round" stroke-miterlimit="10" d="
			M785,983.8c-234.1,76.6-511.4-49.1-619.6-280.8"/>
	</g>
</g>
<g transform="matrix(0.9473342088777738, -0.31001262155892295, 0.31001262155892295, 0.9473342088777738, 816.2407239745128, 482.2878950598906)">
	<g>
		<path fill="#CCCCCC" d="M-285.6-156.5c0.2,0,0.4-0.2,0.4-0.4c0-0.2-0.2-0.4-0.4-0.4L-285.6-156.5z"/>
	</g>
</g>
<g transform="matrix(-1.2647333671237193, -2.7096861201266687, 2.7096861201266687, -1.2647333671237193, 557.2800369495542, 360.6577521051985)">
	<g>
		<path fill="#CCCCCC" d="M47.3-76.6l1.6,0.4l-1.6,0.4L47.3-76.6z"/>
	</g>
</g>
<g transform="matrix(0.33225658238374106, 0, 0, 0.33225658238374106, 236.20582321133895, 95.32018844182844)">
	<g>
		<path fill="none" stroke="#CCCCCC" stroke-width="3" stroke-linecap="round" stroke-linejoin="round" stroke-miterlimit="10" d="
			M443.5,1137.8C259,1093,128.1,899.3,151.1,705.3"/>
	</g>
</g>
<g transform="matrix(0.968602968002139, 0.2352832744020722, -0.2352832744020722, 0.968602968002139, 674.9253316422078, 546.0127364099809)">
	<g>
		<path fill="#CCCCCC" d="M-301.2-1.4c0.2,0,0.4-0.2,0.4-0.4c0-0.2-0.2-0.4-0.4-0.4L-301.2-1.4z"/>
	</g>
</g>
<g transform="matrix(0.351640109704565, -2.9695620203609456, 2.9695620203609456, 0.351640109704565, 554.5860695927669, 361.09087808704373)">
	<g>
		<path fill="#CCCCCC" d="M-0.1-90.7l1.6,0.4l-1.6,0.4L-0.1-90.7z"/>
	</g>
</g>
<g transform="matrix(0.33225658238374106, 0, 0, 0.33225658238374106, 236.20582321133895, 95.32018844182844)">
	<g>
		<path fill="none" stroke="#CCCCCC" stroke-width="3" stroke-linecap="round" stroke-linejoin="round" stroke-miterlimit="10" d="
			M953.9,188.9c-84.3,320-430.6,541-773.5,493.7"/>
	</g>
</g>
<g transform="matrix(0.2539348679664173, -0.9638812228001911, 0.9638812228001911, 0.2539348679664173, 886.1590356806, 153.3006452523822)">
	<g>
		<path fill="#CCCCCC" d="M-89.8-321.4c0.2,0,0.4-0.2,0.4-0.4c0-0.2-0.2-0.4-0.4-0.4L-89.8-321.4z"/>
	</g>
</g>
<g transform="matrix(-2.962221650383742, -0.4088914935787225, 0.4088914935787225, -2.962221650383742, 560.1091863362591, 356.8230925790689)">
	<g>
		<path fill="#CCCCCC" d="M89-1l1.6,0.4L89-0.2L89-1z"/>
	</g>
</g>
<g transform="matrix(0.33225658238374106, 0, 0, 0.33225658238374106, 236.20582321133895, 95.32018844182844)">
	<g>
		<path fill="none" stroke="#CCCCCC" stroke-width="3" stroke-linecap="round" stroke-linejoin="round" stroke-miterlimit="10" d="
			M302.7,800.3C-86.4,828.1-465.1,524.9-543.2,123"/>
	</g>
</g>
<g transform="matrix(0.9942294839738564, -0.0711172414607928, 0.0711172414607928, 0.9942294839738564, 616.652304902818, 406.33567078529404)">
	<g>
		<path fill="#CCCCCC" d="M-276.8-64.8c0.2,0,0.4-0.2,0.4-0.4c0-0.2-0.2-0.4-0.4-0.4L-276.8-64.8z"/>
	</g>
</g>
<g transform="matrix(-0.5701398488082609, -2.935453953364644, 2.935453953364644, -0.5701398488082609, 265.39786646303537, 120.14800782022257)">
	<g>
		<path fill="#CCCCCC" d="M8.1-70.3l1.6,0.4l-1.6,0.4L8.1-70.3z"/>
	</g>
</g>
<g transform="matrix(0.33225658238374106, 0, 0, 0.33225658238374106, 236.20582321133895, 95.32018844182844)">
	<g>
		<path fill="none" stroke="#CCCCCC" stroke-width="3" stroke-linecap="round" stroke-linejoin="round" stroke-miterlimit="10" d="
			M956.4,189.3c-14.6,311.9-290,584.1-615.2,608.2"/>
	</g>
</g>
<g transform="matrix(0.046502422424070086, -0.9956844146337769, 0.9956844146337769, 0.046502422424070086, 887.1962018579336, 153.45966563756053)">
	<g>
		<path fill="#CCCCCC" d="M-20.4-333.3c0.2,0,0.4-0.2,0.4-0.4c0-0.2-0.2-0.4-0.4-0.4L-20.4-333.3z"/>
	</g>
</g>
<g transform="matrix(-2.9821787928956374, 0.22036108260475165, -0.22036108260475165, -2.9821787928956374, 626.5937609181776, 405.6128342604842)">
	<g>
		<path fill="#CCCCCC" d="M91.3,21.5l1.6,0.4l-1.6,0.4L91.3,21.5z"/>
	</g>
</g>
<g transform="matrix(0.33225658238374106, 0, 0, 0.33225658238374106, 236.20582321133895, 95.32018844182844)">
	<g>
		<path fill="none" stroke="#CCCCCC" stroke-width="3" stroke-linecap="round" stroke-linejoin="round" stroke-miterlimit="10" d="
			M483.7,902.7c-65,16.4-136.4-18.8-159.4-78.6"/>
	</g>
</g>
<g transform="matrix(0.9663956598008737, -0.2441912315255138, 0.2441912315255138, 0.9663956598008737, 691.5491927182318, 448.73310325632565)">
	<g>
		<path fill="#CCCCCC" d="M-273.4-124c0.2,0,0.4-0.2,0.4-0.4c0-0.2-0.2-0.4-0.4-0.4L-273.4-124z"/>
	</g>
</g>
<g transform="matrix(-1.075568919386957, -2.7901793596777957, 2.7901793596777957, -1.075568919386957, 623.416070645155, 410.6303872467238)">
	<g>
		<path fill="#CCCCCC" d="M46.6-82.6l1.6,0.4l-1.6,0.4L46.6-82.6z"/>
	</g>
</g>
<g transform="matrix(0.33225658238374106, 0, 0, 0.33225658238374106, 236.20582321133895, 95.32018844182844)">
	<g>
		<path fill="none" stroke="#CCCCCC" stroke-width="3" stroke-linecap="round" stroke-linejoin="round" stroke-miterlimit="10" d="
			M-479.3,128.9c10.8-10.2,20-18,31.1-8.7"/>
	</g>
</g>
<g transform="matrix(-0.7261923188071607, 0.6827844791304153, -0.6827844791304153, -0.7261923188071607, 292.9978401643655, 128.454490822563)">
	<g>
		<path fill="#CCCCCC" d="M164.6,141.8c0.2,0,0.4-0.2,0.4-0.4c0-0.2-0.2-0.4-0.4-0.4L164.6,141.8z"/>
	</g>
</g>
<g transform="matrix(2.295246874483799, 1.9167136313741742, -1.9167136313741742, 2.295246874483799, 310.4607079209725, 128.673890385108)">
	<g>
		<path fill="#CCCCCC" d="M-55.9,49.1l1.6,0.4l-1.6,0.4L-55.9,49.1z"/>
	</g>
</g>
<g transform="matrix(0.33225658238374106, 0, 0, 0.33225658238374106, 236.20582321133895, 95.32018844182844)">
	<g>
		<path fill="none" stroke="#CCCCCC" stroke-width="3" stroke-linecap="round" stroke-linejoin="round" stroke-miterlimit="10" d="
			M-499.9,139.1c-18.9,3.2-36.7-2.9-40.8-16.7"/>
	</g>
</g>
<g transform="matrix(0.9829692177497384, -0.16529200159832566, 0.16529200159832566, 0.9829692177497384, 284.4520280855435, 132.6948713476875)">
	<g>
		<path fill="#CCCCCC" d="M-213.5-26.5c0.2,0,0.4-0.2,0.4-0.4c0-0.2-0.2-0.4-0.4-0.4L-213.5-26.5z"/>
	</g>
</g>
<g transform="matrix(-0.8465596375367733, -2.8679759656623394, 2.8679759656623394, -0.8465596375367733, 265.8585647322233, 120.03554371244945)">
	<g>
		<path fill="#CCCCCC" d="M14.7-69l1.6,0.4l-1.6,0.4L14.7-69z"/>
	</g>
</g>
<g transform="matrix(0.33225658238374106, 0, 0, 0.33225658238374106, 236.20582321133895, 95.32018844182844)">
	<g>
		<path fill="none" stroke="#CCCCCC" stroke-width="3" stroke-linecap="round" stroke-linejoin="round" stroke-miterlimit="10" d="
			M948,185.3C567.8,523.4-66.3,509.7-468.2,154.7"/>
	</g>
</g>
<g transform="matrix(0.7448712685529192, -0.6623569446456181, 0.6623569446456181, 0.7448712685529192, 883.7043847257115, 151.79302391204962)">
	<g>
		<path fill="#CCCCCC" d="M-252.7-217.5c0.2,0,0.4-0.2,0.4-0.4c0-0.2-0.2-0.4-0.4-0.4L-252.7-217.5z"/>
	</g>
</g>
<g transform="matrix(-2.2411404000776325, -1.9797068133092557, 1.9797068133092557, -2.2411404000776325, 293.10211142184056, 135.16792326183136)">
	<g>
		<path fill="#CCCCCC" d="M50.7-50.3l1.6,0.4l-1.6,0.4L50.7-50.3z"/>
	</g>
</g>
<g transform="matrix(0.33225658238374106, 0, 0, 0.33225658238374106, 236.20582321133895, 95.32018844182844)">
	<g>
		<path fill="none" stroke="#CCCCCC" stroke-width="3" stroke-linecap="round" stroke-linejoin="round" stroke-miterlimit="10" d="
			M-537.3,91.9c35-16.2,77.8-6.1,95.6,22.7"/>
	</g>
</g>
<g transform="matrix(-0.9048419663777467, 0.4181039879235382, -0.4181039879235382, -0.9048419663777467, 268.9718427756441, 113.16506305308069)">
	<g>
		<path fill="#CCCCCC" d="M197.8,77.7c0.2,0,0.4-0.2,0.4-0.4c0-0.2-0.2-0.4-0.4-0.4L197.8,77.7z"/>
	</g>
</g>
<g transform="matrix(1.571344285456877, 2.5441750128647276, -2.5441750128647276, 1.571344285456877, 311.6672115938536, 127.62812070099481)">
	<g>
		<path fill="#CCCCCC" d="M-37.4,63.8l1.6,0.4l-1.6,0.4L-37.4,63.8z"/>
	</g>
</g>
<g transform="matrix(0.33225658238374106, 0, 0, 0.33225658238374106, 236.20582321133895, 95.32018844182844)">
	<g>
		<path fill="none" stroke="#CCCCCC" stroke-width="3" stroke-linecap="round" stroke-linejoin="round" stroke-miterlimit="10" d="
			M-538.9,89.4C-97.5-267.3,608.6-218.2,1038.3,199"/>
	</g>
</g>
<g transform="matrix(-0.7752239551876071, 0.6265602510047987, -0.6265602510047987, -0.7752239551876071, 268.323753335221, 112.12278268160217)">
	<g>
		<path fill="#CCCCCC" d="M172.9,123.5c0.2,0,0.4-0.2,0.4-0.4c0-0.2-0.2-0.4-0.4-0.4L172.9,123.5z"/>
	</g>
</g>
<g transform="matrix(2.1454676032303874, 2.0830069906296704, -2.0830069906296704, 2.1454676032303874, 925.3849833543296, 161.62239098728588)">
	<g>
		<path fill="#CCCCCC" d="M-82.6,79.7l1.6,0.4l-1.6,0.4L-82.6,79.7z"/>
	</g>
</g>
<g transform="matrix(0.33225658238374106, 0, 0, 0.33225658238374106, 236.20582321133895, 95.32018844182844)">
	<g>
		<path fill="none" stroke="#CCCCCC" stroke-width="3" stroke-linecap="round" stroke-linejoin="round" stroke-miterlimit="10" d="
			M864.9,982.4C285.5,1099.8-343.4,714.6-539.9,122.1"/>
	</g>
</g>
<g transform="matrix(0.9769387953369756, -0.19783962950190837, 0.19783962950190837, 0.9769387953369756, 849.3183836448793, 481.7270092837939)">
	<g>
		<path fill="#CCCCCC" d="M-308.4-123.4c0.2,0,0.4-0.2,0.4-0.4c0-0.2-0.2-0.4-0.4-0.4L-308.4-123.4z"/>
	</g>
</g>
<g transform="matrix(-0.9413216897633832, -2.8382851928416617, 2.8382851928416617, -0.9413216897633832, 266.01650270803367, 119.98605960642595)">
	<g>
		<path fill="#CCCCCC" d="M17-68.5l1.6,0.4L17-67.7L17-68.5z"/>
	</g>
</g>
<g transform="matrix(0.33225658238374106, 0, 0, 0.33225658238374106, 236.20582321133895, 95.32018844182844)">
	<g>
		<path fill="none" stroke="#CCCCCC" stroke-width="3" stroke-linecap="round" stroke-linejoin="round" stroke-miterlimit="10" d="
			M643.9,1220.9C63.2,1223.1-469.1,731.6-545,123.3"/>
	</g>
</g>
<g transform="matrix(0.9967630319222234, -0.003658828928795462, 0.003658828928795462, 0.9967630319222234, 757.8486981124772, 580.433090679934)">
	<g>
		<path fill="#CCCCCC" d="M-308.4-80.4c0.2,0,0.4-0.2,0.4-0.4c0-0.2-0.2-0.4-0.4-0.4V-80.4z"/>
	</g>
</g>
<g transform="matrix(-0.3701437024100473, -2.9673124202027332, 2.9673124202027332, -0.3701437024100473, 265.06454014586643, 120.20110418233355)">
	<g>
		<path fill="#CCCCCC" d="M3.4-70.7L5-70.3l-1.6,0.4L3.4-70.7z"/>
	</g>
</g>
<g transform="matrix(0.33225658238374106, 0, 0, 0.33225658238374106, 236.20582321133895, 95.32018844182844)">
	<g>
		<path fill="none" stroke="#CCCCCC" stroke-width="3" stroke-linecap="round" stroke-linejoin="round" stroke-miterlimit="10" d="
			M784.6,982.1C226.1,1080-367.2,695.1-540.6,122.3"/>
	</g>
</g>
<g transform="matrix(0.9818018216453208, -0.17209041765840122, 0.17209041765840122, 0.9818018216453208, 816.0683902076001, 481.59827608158616)">
	<g>
		<path fill="#CCCCCC" d="M-305-114.1c0.2,0,0.4-0.2,0.4-0.4c0-0.2-0.2-0.4-0.4-0.4L-305-114.1z"/>
	</g>
</g>
<g transform="matrix(-0.8663863001115482, -2.862048940619682, 2.862048940619682, -0.8663863001115482, 265.89160990440314, 120.02566514264393)">
	<g>
		<path fill="#CCCCCC" d="M15.2-68.9l1.6,0.4l-1.6,0.4L15.2-68.9z"/>
	</g>
</g>
<g transform="matrix(0.33225658238374106, 0, 0, 0.33225658238374106, 236.20582321133895, 95.32018844182844)">
	<g>
		<path fill="none" stroke="#CCCCCC" stroke-width="3" stroke-linecap="round" stroke-linejoin="round" stroke-miterlimit="10" d="
			M443.2,1140c-509-25.7-952-480.8-989.6-1016.6"/>
	</g>
</g>
<g transform="matrix(0.9955038492713619, 0.05021966668362757, -0.05021966668362757, 0.9955038492713619, 674.7908391095925, 546.9380417896809)">
	<g>
		<path fill="#CCCCCC" d="M-295.6-57.9c0.2,0,0.4-0.2,0.4-0.4c0-0.2-0.2-0.4-0.4-0.4L-295.6-57.9z"/>
	</g>
</g>
<g transform="matrix(-0.20922516154561427, -2.982980756106119, 2.982980756106119, -0.20922516154561427, 264.79634090476713, 120.22721889265854)">
	<g>
		<path fill="#CCCCCC" d="M-0.5-70.9l1.6,0.4l-1.6,0.4L-0.5-70.9z"/>
	</g>
</g>
<g transform="matrix(0.33225658238374106, 0, 0, 0.33225658238374106, 236.20582321133895, 95.32018844182844)">
	<g>
		<path fill="none" stroke="#CCCCCC" stroke-width="3" stroke-linecap="round" stroke-linejoin="round" stroke-miterlimit="10" d="
			M947.8,185C542.2,527.6-118.9,496.2-528.8,115"/>
	</g>
</g>
<g transform="matrix(0.7615252587868615, -0.6431401161998191, 0.6431401161998191, 0.7615252587868615, 883.6211177867914, 151.69694043503947)">
	<g>
		<path fill="#CCCCCC" d="M-258.2-210.9c0.2,0,0.4-0.2,0.4-0.4c0-0.2-0.2-0.4-0.4-0.4L-258.2-210.9z"/>
	</g>
</g>
<g transform="matrix(-2.189909936711168, -2.036232754037935, 2.036232754037935, -2.189909936711168, 268.0974816139019, 118.64930431632209)">
	<g>
		<path fill="#CCCCCC" d="M47.5-51.3l1.6,0.4l-1.6,0.4L47.5-51.3z"/>
	</g>
</g>
<g transform="matrix(0.33225658238374106, 0, 0, 0.33225658238374106, 236.20582321133895, 95.32018844182844)">
	<g>
		<path fill="none" stroke="#CCCCCC" stroke-width="3" stroke-linecap="round" stroke-linejoin="round" stroke-miterlimit="10" d="
			M483.4,841.2c-445.9,61.1-904.8-260.6-1025-718.6"/>
	</g>
</g>
<g transform="matrix(0.9875425943850259, -0.13531279729281206, 0.13531279729281206, 0.9875425943850259, 691.4434968376542, 423.26948117803886)">
	<g>
		<path fill="#CCCCCC" d="M-286.2-87.9c0.2,0,0.4-0.2,0.4-0.4c0-0.2-0.2-0.4-0.4-0.4L-286.2-87.9z"/>
	</g>
</g>
<g transform="matrix(-0.7589218876916551, -2.892401584826311, 2.892401584826311, -0.7589218876916551, 265.71250284046187, 120.07625193736783)">
	<g>
		<path fill="#CCCCCC" d="M12.6-69.5l1.6,0.4l-1.6,0.4L12.6-69.5z"/>
	</g>
</g>
<g transform="matrix(0.33225658238374106, 0, 0, 0.33225658238374106, 236.20582321133895, 95.32018844182844)">
	<g>
		<path fill="none" stroke="#CCCCCC" stroke-width="3" stroke-linecap="round" stroke-linejoin="round" stroke-miterlimit="10" d="
			M483.4,901C22.8,946.7-436.5,598.3-542.5,122.9"/>
	</g>
</g>
<g transform="matrix(0.991898507545772, -0.09842397860472807, 0.09842397860472807, 0.991898507545772, 691.421716834634, 448.004304607784)">
	<g>
		<path fill="#CCCCCC" d="M-288.8-82c0.2,0,0.4-0.2,0.4-0.4c0-0.2-0.2-0.4-0.4-0.4L-288.8-82z"/>
	</g>
</g>
<g transform="matrix(-0.6506268816380543, -2.9186699060382217, 2.9186699060382217, -0.6506268816380543, 265.5320117120829, 120.12003248114796)">
	<g>
		<path fill="#CCCCCC" d="M10-70l1.6,0.4L10-69.2L10-70z"/>
	</g>
</g>
<g transform="matrix(0.33225658238374106, 0, 0, 0.33225658238374106, 236.20582321133895, 95.32018844182844)">
	<g>
		<path fill="none" stroke="#CCCCCC" stroke-width="3" stroke-linecap="round" stroke-linejoin="round" stroke-miterlimit="10" d="
			M948,185.3C583.4,508.7-23.7,495-408,154.7"/>
	</g>
</g>
<g transform="matrix(0.7456700398461249, -0.6614575727223871, 0.6614575727223871, 0.7456700398461249, 883.7003694178921, 151.7885269700853)">
	<g>
		<path fill="#CCCCCC" d="M-252.9-217.2c0.2,0,0.4-0.2,0.4-0.4c0-0.2-0.2-0.4-0.4-0.4L-252.9-217.2z"/>
	</g>
</g>
<g transform="matrix(-2.238749710402244, -1.9824099207018437, 1.9824099207018437, -2.238749710402244, 318.0173702118004, 135.17242780854536)">
	<g>
		<path fill="#CCCCCC" d="M51.9-51.5l1.6,0.4l-1.6,0.4L51.9-51.5z"/>
	</g>
</g>
<g transform="matrix(0.33225658238374106, 0, 0, 0.33225658238374106, 236.20582321133895, 95.32018844182844)">
	<g>
		<path fill="none" stroke="#CCCCCC" stroke-width="3" stroke-linecap="round" stroke-linejoin="round" stroke-miterlimit="10" d="
			M968.2,172.9c29.7-11.7,64-2.2,76.6,21.2"/>
	</g>
</g>
<g transform="matrix(-0.927832243958802, 0.364248892800359, -0.364248892800359, -0.927832243958802, 892.0679058854022, 146.6600004070055)">
	<g>
		<path fill="#CCCCCC" d="M314.3,117.2c0.2,0,0.4-0.2,0.4-0.4c0-0.2-0.2-0.4-0.4-0.4L314.3,117.2z"/>
	</g>
</g>
<g transform="matrix(1.4192354540542709, 2.6320562466403694, -2.6320562466403694, 1.4192354540542709, 926.5954161478674, 160.7073114609591)">
	<g>
		<path fill="#CCCCCC" d="M-54.7,100.5l1.6,0.4l-1.6,0.4L-54.7,100.5z"/>
	</g>
</g>
<g transform="matrix(0.33225658238374106, 0, 0, 0.33225658238374106, 236.20582321133895, 95.32018844182844)">
	<g>
		<path fill="none" stroke="#CCCCCC" stroke-width="3" stroke-linecap="round" stroke-linejoin="round" stroke-miterlimit="10" d="
			M964.3,186.8c171.2,222.9,140.4,569.7-68.7,774.7"/>
	</g>
</g>
<g transform="matrix(-0.6071370812565335, -0.7905279839444084, 0.7905279839444084, -0.6071370812565335, 890.4644190708831, 152.43388123554814)">
	<g>
		<path fill="#CCCCCC" d="M200.1-268.3c0.2,0,0.4-0.2,0.4-0.4c0-0.2-0.2-0.4-0.4-0.4L200.1-268.3z"/>
	</g>
</g>
<g transform="matrix(-2.1355870799611383, 2.0931357298145477, -2.0931357298145477, -2.1355870799611383, 857.7623731956161, 477.24925156793336)">
	<g>
		<path fill="#CCCCCC" d="M62.8,90.4l1.6,0.4l-1.6,0.4L62.8,90.4z"/>
	</g>
</g>
<g transform="matrix(0.33225658238374106, 0, 0, 0.33225658238374106, 236.20582321133895, 95.32018844182844)">
	<g>
		<path fill="none" stroke="#CCCCCC" stroke-width="3" stroke-linecap="round" stroke-linejoin="round" stroke-miterlimit="10" d="
			M962.5,188c173.7,338.7,46.3,794.5-284.6,1018.1"/>
	</g>
</g>
<g transform="matrix(-0.45476348516440185, -0.8869837097698244, 0.8869837097698244, -0.45476348516440185, 889.7025245518305, 152.91615924934845)">
	<g>
		<path fill="#CCCCCC" d="M148.4-299.7c0.2,0,0.4-0.2,0.4-0.4c0-0.2-0.2-0.4-0.4-0.4L148.4-299.7z"/>
	</g>
</g>
<g transform="matrix(-2.477775743076584, 1.674089820333576, -1.674089820333576, -2.477775743076584, 766.9621489850922, 577.6246464916309)">
	<g>
		<path fill="#CCCCCC" d="M69.4,79.4l1.6,0.4l-1.6,0.4L69.4,79.4z"/>
	</g>
</g>
<g transform="matrix(0.33225658238374106, 0, 0, 0.33225658238374106, 236.20582321133895, 95.32018844182844)">
	<g>
		<path fill="none" stroke="#CCCCCC" stroke-width="3" stroke-linecap="round" stroke-linejoin="round" stroke-miterlimit="10" d="
			M963.3,187.5c150.9,242.1,85.4,589.5-146.3,776"/>
	</g>
</g>
<g transform="matrix(-0.527107298083318, -0.845995168510564, 0.845995168510564, -0.527107298083318, 890.0642672835542, 152.71121631590302)">
	<g>
		<path fill="#CCCCCC" d="M172.9-286.4c0.2,0,0.4-0.2,0.4-0.4c0-0.2-0.2-0.4-0.4-0.4V-286.4z"/>
	</g>
</g>
<g transform="matrix(-2.3296274589793704, 1.8747760564644897, -1.8747760564644897, -2.3296274589793704, 824.8601297506902, 477.6131844675584)">
	<g>
		<path fill="#CCCCCC" d="M69.6,82.3l1.6,0.4l-1.6,0.4L69.6,82.3z"/>
	</g>
</g>
<g transform="matrix(0.33225658238374106, 0, 0, 0.33225658238374106, 236.20582321133895, 95.32018844182844)">
	<g>
		<path fill="none" stroke="#CCCCCC" stroke-width="3" stroke-linecap="round" stroke-linejoin="round" stroke-miterlimit="10" d="
			M960.2,188.9c103.2,366.4-112,788-480.6,941.6"/>
	</g>
</g>
<g transform="matrix(-0.2701179405558638, -0.959471847958955, 0.959471847958955, -0.2701179405558638, 888.7793282227022, 153.27860161804068)">
	<g>
		<path fill="#CCCCCC" d="M86-323c0.2,0,0.4-0.2,0.4-0.4c0-0.2-0.2-0.4-0.4-0.4L86-323z"/>
	</g>
</g>
<g transform="matrix(-2.7602138595707597, 1.1502907497483883, -1.1502907497483883, -2.7602138595707597, 684.3687272533105, 545.2719729553108)">
	<g>
		<path fill="#CCCCCC" d="M79.6,59.7l1.6,0.4l-1.6,0.4L79.6,59.7z"/>
	</g>
</g>
<g transform="matrix(0.33225658238374106, 0, 0, 0.33225658238374106, 236.20582321133895, 95.32018844182844)">
	<g>
		<path fill="none" stroke="#CCCCCC" stroke-width="3" stroke-linecap="round" stroke-linejoin="round" stroke-miterlimit="10" d="
			M493.6,827.7c-40.9-278.2,155.1-566.3,437.8-643.4"/>
	</g>
</g>
<g transform="matrix(0.14492357975231962, 0.9861780188524214, -0.9861780188524214, 0.14492357975231962, 695.6565687067573, 417.66202269100813)">
	<g>
		<path fill="#CCCCCC" d="M-90.1,286.7c0.2,0,0.4-0.2,0.4-0.4c0-0.2-0.2-0.4-0.4-0.4L-90.1,286.7z"/>
	</g>
</g>
<g transform="matrix(2.8848736519883906, -0.7870536014696757, 0.7870536014696757, 2.8848736519883906, 882.6206166424747, 149.7930001012056)">
	<g>
		<path fill="#CCCCCC" d="M-109.3-27.9l1.6,0.4l-1.6,0.4V-27.9z"/>
	</g>
</g>
<g transform="matrix(0.33225658238374106, 0, 0, 0.33225658238374106, 236.20582321133895, 95.32018844182844)">
	<g>
		<path fill="none" stroke="#CCCCCC" stroke-width="3" stroke-linecap="round" stroke-linejoin="round" stroke-miterlimit="10" d="
			M493.2,887.9c-55.3-293.9,141-608.5,438.6-702.7"/>
	</g>
</g>
<g transform="matrix(0.1844058321934378, 0.9795633812515445, -0.9795633812515445, 0.1844058321934378, 695.4591696849725, 442.6143419609672)">
	<g>
		<path fill="#CCCCCC" d="M-106.4,281.9c0.2,0,0.4-0.2,0.4-0.4s-0.2-0.4-0.4-0.4L-106.4,281.9z"/>
	</g>
</g>
<g transform="matrix(2.8509437079583115, -0.9022579085694596, 0.9022579085694596, 2.8509437079583115, 882.6771554212642, 149.9850048205665)">
	<g>
		<path fill="#CCCCCC" d="M-108.1-32.2l1.6,0.4l-1.6,0.4L-108.1-32.2z"/>
	</g>
</g>
<g transform="matrix(0.33225658238374106, 0, 0, 0.33225658238374106, 236.20582321133895, 95.32018844182844)">
	<g>
		<path fill="none" stroke="#CCCCCC" stroke-width="3" stroke-linecap="round" stroke-linejoin="round" stroke-miterlimit="10" d="
			M805.2,971.8c16-15.1,38.9-19,51.2-8.7"/>
	</g>
</g>
<g transform="matrix(-0.7261919066180629, 0.6827849175240589, -0.6827849175240589, -0.7261919066180629, 824.6083821180174, 477.323920069907)">
	<g>
		<path fill="#CCCCCC" d="M193.9,264.1c0.2,0,0.4-0.2,0.4-0.4c0-0.2-0.2-0.4-0.4-0.4L193.9,264.1z"/>
	</g>
</g>
<g transform="matrix(2.295245980944364, 1.9167147013788888, -1.9167147013788888, 2.295245980944364, 850.3776542945517, 477.5433018880361)">
	<g>
		<path fill="#CCCCCC" d="M-98,54.3l1.6,0.4l-1.6,0.4L-98,54.3z"/>
	</g>
</g>
<g transform="matrix(0.33225658238374106, 0, 0, 0.33225658238374106, 236.20582321133895, 95.32018844182844)">
	<g>
		<path fill="none" stroke="#CCCCCC" stroke-width="3" stroke-linecap="round" stroke-linejoin="round" stroke-miterlimit="10" d="
			M799.1,991.8c20.8,90.4-32.1,188.9-118.3,220.1"/>
	</g>
</g>
<g transform="matrix(-0.22386758186891484, -0.9713049133120238, 0.9713049133120238, -0.22386758186891484, 822.0967462390263, 485.5943590937859)">
	<g>
		<path fill="#CCCCCC" d="M131.6-299.1c0.2,0,0.4-0.2,0.4-0.4c0-0.2-0.2-0.4-0.4-0.4L131.6-299.1z"/>
	</g>
</g>
<g transform="matrix(-2.812124770587238, 1.0168105202902342, -1.0168105202902342, -2.812124770587238, 767.5193844813532, 578.7201360290069)">
	<g>
		<path fill="#CCCCCC" d="M86.8,59.7l1.6,0.4l-1.6,0.4V59.7z"/>
	</g>
</g>
<g transform="matrix(0.33225658238374106, 0, 0, 0.33225658238374106, 236.20582321133895, 95.32018844182844)">
	<g>
		<path fill="none" stroke="#CCCCCC" stroke-width="3" stroke-linecap="round" stroke-linejoin="round" stroke-miterlimit="10" d="
			M459.7,1129.4c47-118.9,186.3-188.7,311.1-156.1"/>
	</g>
</g>
<g transform="matrix(-0.36634513816765985, 0.9270065633946891, -0.9270065633946891, -0.36634513816765985, 681.6000711152171, 542.5540962655994)">
	<g>
		<path fill="#CCCCCC" d="M40.8,300c0.2,0,0.4-0.2,0.4-0.4c0-0.2-0.2-0.4-0.4-0.4L40.8,300z"/>
	</g>
</g>
<g transform="matrix(2.8929133348842084, 0.7569688212683172, -0.7569688212683172, 2.8929133348842084, 816.1558752476639, 479.47620617840016)">
	<g>
		<path fill="#CCCCCC" d="M-109.9,7.4l1.6,0.4l-1.6,0.4L-109.9,7.4z"/>
	</g>
</g>
<g transform="matrix(0.33225658238374106, 0, 0, 0.33225658238374106, 236.20582321133895, 95.32018844182844)">
	<g>
		<path fill="none" stroke="#CCCCCC" stroke-width="3" stroke-linecap="round" stroke-linejoin="round" stroke-miterlimit="10" d="
			M506.8,835.8c106.2-35,230.8,18.9,278.4,120.3"/>
	</g>
</g>
<g transform="matrix(-0.9468029568122657, 0.3116313363695386, -0.3116313363695386, -0.9468029568122657, 701.1151971731512, 421.03475958325487)">
	<g>
		<path fill="#CCCCCC" d="M267.5,139.2c0.2,0,0.4-0.2,0.4-0.4c0-0.2-0.2-0.4-0.4-0.4L267.5,139.2z"/>
	</g>
</g>
<g transform="matrix(1.2693629757038187, 2.7075204515267406, -2.7075204515267406, 1.2693629757038187, 818.8617871312471, 476.22530751533816)">
	<g>
		<path fill="#CCCCCC" d="M-64.8,88.1l1.6,0.4l-1.6,0.4L-64.8,88.1z"/>
	</g>
</g>
<g transform="matrix(0.33225658238374106, 0, 0, 0.33225658238374106, 236.20582321133895, 95.32018844182844)">
	<g>
		<path fill="none" stroke="#CCCCCC" stroke-width="3" stroke-linecap="round" stroke-linejoin="round" stroke-miterlimit="10" d="
			M506,894.1c92-49.5,215.2-20.7,275.2,64.3"/>
	</g>
</g>
<g transform="matrix(-0.8776003772562311, 0.47261771726802027, -0.47261771726802027, -0.8776003772562311, 700.7691912033861, 445.14909627891814)">
	<g>
		<path fill="#CCCCCC" d="M236.7,188c0.2,0,0.4-0.2,0.4-0.4c0-0.2-0.2-0.4-0.4-0.4L236.7,188z"/>
	</g>
</g>
<g transform="matrix(1.7238830644445986, 2.44339447074031, -2.44339447074031, 1.7238830644445986, 818.1042729479974, 476.66549070486576)">
	<g>
		<path fill="#CCCCCC" d="M-79.3,75.6l1.6,0.4l-1.6,0.4L-79.3,75.6z"/>
	</g>
</g>
<g transform="matrix(0.33225658238374106, 0, 0, 0.33225658238374106, 236.20582321133895, 95.32018844182844)">
	<g>
		<path fill="none" stroke="#CCCCCC" stroke-width="3" stroke-linecap="round" stroke-linejoin="round" stroke-miterlimit="10" d="
			M466.4,1136.2c65.6-25.7,144.8,1.7,176.9,61.4"/>
	</g>
</g>
<g transform="matrix(-0.9278324500781934, 0.36424836776272596, -0.36424836776272596, -0.9278324500781934, 684.407541895564, 545.3678941976616)">
	<g>
		<path fill="#CCCCCC" d="M247.2,175.6c0.2,0,0.4-0.2,0.4-0.4c0-0.2-0.2-0.4-0.4-0.4L247.2,175.6z"/>
	</g>
</g>
<g transform="matrix(1.4192330354455833, 2.632057550780973, -2.632057550780973, 1.4192330354455833, 760.4671249559968, 576.0280546501348)">
	<g>
		<path fill="#CCCCCC" d="M-73.7,77.9l1.6,0.4l-1.6,0.4L-73.7,77.9z"/>
	</g>
</g>
<g transform="matrix(0.33225658238374106, 0, 0, 0.33225658238374106, 236.20582321133895, 95.32018844182844)">
	<g>
		<path fill="none" stroke="#CCCCCC" stroke-width="3" stroke-linecap="round" stroke-linejoin="round" stroke-miterlimit="10" d="
			M502.4,849.4c59.2,82.6,46.9,205-27.6,273.3"/>
	</g>
</g>
<g transform="matrix(-0.5808187918903497, -0.8100613926258602, 0.8100613926258602, -0.5808187918903497, 699.2852713328205, 426.6432320369066)">
	<g>
		<path fill="#CCCCCC" d="M213.2-212.3c0.2,0,0.4-0.2,0.4-0.4c0-0.2-0.2-0.4-0.4-0.4L213.2-212.3z"/>
	</g>
</g>
<g transform="matrix(-2.2032480057151655, 2.021793160745027, -2.021793160745027, -2.2032480057151655, 683.4404610910769, 543.8194860499975)">
	<g>
		<path fill="#CCCCCC" d="M54.3,83.7l1.6,0.4l-1.6,0.4L54.3,83.7z"/>
	</g>
</g>
<g transform="matrix(0.33225658238374106, 0, 0, 0.33225658238374106, 236.20582321133895, 95.32018844182844)">
	<g>
		<path fill="none" stroke="#CCCCCC" stroke-width="3" stroke-linecap="round" stroke-linejoin="round" stroke-miterlimit="10" d="
			M502.1,909.8c44.7,66.8,32.7,162.5-26.7,213.6"/>
	</g>
</g>
<g transform="matrix(-0.5541090345888098, -0.8285608647667175, 0.8285608647667175, -0.5541090345888098, 699.1517522081613, 451.6549494715264)">
	<g>
		<path fill="#CCCCCC" d="M210.2-216.4c0.2,0,0.4-0.2,0.4-0.4c0-0.2-0.2-0.4-0.4-0.4L210.2-216.4z"/>
	</g>
</g>
<g transform="matrix(-2.2679706286544796, 1.948912154788877, -1.948912154788877, -2.2679706286544796, 683.5483065808912, 543.9409592511987)">
	<g>
		<path fill="#CCCCCC" d="M57,81.8l1.6,0.4L57,82.6L57,81.8z"/>
	</g>
</g>
<g transform="matrix(0.33225658238374106, 0, 0, 0.33225658238374106, 236.20582321133895, 95.32018844182844)">
	<g>
		<path fill="none" stroke="#CCCCCC" stroke-width="3" stroke-linecap="round" stroke-linejoin="round" stroke-miterlimit="10" d="
			M487.1,891c-10.2-10.8-18-20-8.7-31.1"/>
	</g>
</g>
<g transform="matrix(0.6827862039860437, 0.7261906970501907, -0.7261906970501907, 0.6827862039860437, 692.9672858757592, 443.88119185729977)">
	<g>
		<path fill="#CCCCCC" d="M-241.1,179.9c0.2,0,0.4-0.2,0.4-0.4c0-0.2-0.2-0.4-0.4-0.4L-241.1,179.9z"/>
	</g>
</g>
<g transform="matrix(1.9167097249684457, -2.2952501366375304, 2.2952501366375304, 1.9167097249684457, 693.1866676938884, 426.41833424035894)">
	<g>
		<path fill="#CCCCCC" d="M-52.2-86.6l1.6,0.4l-1.6,0.4L-52.2-86.6z"/>
	</g>
</g>
<g transform="matrix(0.33225658238374106, 0, 0, 0.33225658238374106, 236.20582321133895, 95.32018844182844)">
	<g>
		<path fill="#0C9393" d="M-235.2,960c0,6.7-5.4,12-12,12c-6.7,0-12-5.4-12-12c0-6.6,5.4-12,12-12
			C-240.5,947.9-235.2,953.3-235.2,960z"/>
	</g>
</g>
<g transform="matrix(0.33225658238374106, 0, 0, 0.33225658238374106, 236.20582321133895, 95.32018844182844)">
	<g>
		<path fill="#0C9393" d="M-335.5,1321.2c0,6.6-5.4,12-12,12c-6.7,0-12-5.4-12-12s5.4-12,12-12
			C-340.9,1309.2-335.5,1314.6-335.5,1321.2z"/>
	</g>
</g>
<g transform="matrix(0.33225658238374106, 0, 0, 0.33225658238374106, 236.20582321133895, 95.32018844182844)">
	<g>
		<path fill="#0C9393" d="M-195,899.8c0,6.6-5.4,12-12,12c-6.6,0-12-5.4-12-12c0-6.7,5.4-12,12-12C-200.4,887.7-195,893.1-195,899.8
			z"/>
	</g>
</g>
<g transform="matrix(0.33225658238374106, 0, 0, 0.33225658238374106, 236.20582321133895, 95.32018844182844)">
	<g>
		<path fill="#0C9393" d="M-34.5,1100.5c0,6.7-5.4,12-12,12c-6.6,0-12-5.4-12-12c0-6.6,5.4-12,12-12
			C-39.8,1088.4-34.5,1093.8-34.5,1100.5z"/>
	</g>
</g>
<g transform="matrix(0.33225658238374106, 0, 0, 0.33225658238374106, 236.20582321133895, 95.32018844182844)">
	<g>
		<path fill="#0C9393" d="M45.8,598.7c0,6.7-5.4,12-12,12c-6.6,0-12-5.4-12-12c0-6.6,5.4-12,12-12C40.4,586.7,45.8,592.1,45.8,598.7
			z"/>
	</g>
</g>
<g transform="matrix(0.33225658238374106, 0, 0, 0.33225658238374106, 236.20582321133895, 95.32018844182844)">
	<g>
		<path fill="#0C9393" d="M-355.6,518.5c0,6.7-5.4,12-12,12c-6.7,0-12-5.4-12-12c0-6.6,5.4-12,12-12
			C-361,506.4-355.6,511.8-355.6,518.5z"/>
	</g>
</g>
<g transform="matrix(0.33225658238374106, 0, 0, 0.33225658238374106, 236.20582321133895, 95.32018844182844)">
	<g>
		<path fill="#0C9393" d="M-496.1,518.5c0,6.7-5.4,12-12,12c-6.7,0-12-5.4-12-12c0-6.6,5.4-12,12-12
			C-501.4,506.4-496.1,511.8-496.1,518.5z"/>
	</g>
</g>
<g transform="matrix(0.33225658238374106, 0, 0, 0.33225658238374106, 236.20582321133895, 95.32018844182844)">
	<g>
		<path fill="#0C9393" d="M246.5,759.3c0,6.6-5.4,12-12,12c-6.7,0-12-5.4-12-12c0-6.7,5.4-12,12-12
			C241.1,747.2,246.5,752.6,246.5,759.3z"/>
	</g>
</g>
<g transform="matrix(0.33225658238374106, 0, 0, 0.33225658238374106, 236.20582321133895, 95.32018844182844)">
	<g>
		<path fill="#0C9393" d="M-34.5,679c0,6.7-5.4,12-12,12c-6.6,0-12-5.4-12-12c0-6.6,5.4-12,12-12C-39.8,667-34.5,672.4-34.5,679z"/>
	</g>
</g>
<g transform="matrix(0.33225658238374106, 0, 0, 0.33225658238374106, 236.20582321133895, 95.32018844182844)">
	<g>
		<path fill="#0C9393" d="M427.1,438.2c0,6.7-5.4,12-12,12c-6.7,0-12-5.4-12-12s5.4-12,12-12C421.7,426.1,427.1,431.5,427.1,438.2z"
			/>
	</g>
</g>
<g transform="matrix(0.33225658238374106, 0, 0, 0.33225658238374106, 236.20582321133895, 95.32018844182844)">
	<g>
		<path fill="#0C9393" d="M166.2,679c0,6.7-5.4,12-12,12s-12-5.4-12-12c0-6.6,5.4-12,12-12S166.2,672.4,166.2,679z"/>
	</g>
</g>
<g transform="matrix(0.33225658238374106, 0, 0, 0.33225658238374106, 236.20582321133895, 95.32018844182844)">
	<g>
		<path fill="#0C9393" d="M326.8,799.4c0,6.7-5.4,12-12,12c-6.7,0-12-5.4-12-12c0-6.6,5.4-12,12-12
			C321.4,787.4,326.8,792.8,326.8,799.4z"/>
	</g>
</g>
<g transform="matrix(0.33225658238374106, 0, 0, 0.33225658238374106, 236.20582321133895, 95.32018844182844)">
	<g>
		<path fill="#0C9393" d="M-476,137.1c0,6.6-5.4,12-12,12c-6.6,0-12-5.4-12-12c0-6.7,5.4-12,12-12C-481.4,125.1-476,130.5-476,137.1
			z"/>
	</g>
</g>
<g transform="matrix(0.33225658238374106, 0, 0, 0.33225658238374106, 236.20582321133895, 95.32018844182844)">
	<g>
		<path fill="#0C9393" d="M-536.2,97c0,6.7-5.4,12-12,12c-6.6,0-12-5.4-12-12c0-6.7,5.4-12,12-12C-541.6,85-536.2,90.3-536.2,97z"/>
	</g>
</g>
<g transform="matrix(0.33225658238374106, 0, 0, 0.33225658238374106, 236.20582321133895, 95.32018844182844)">
	<g>
		<path fill="#0C9393" d="M969,177.3c0,6.7-5.4,12-12,12s-12-5.4-12-12s5.4-12,12-12S969,170.6,969,177.3z"/>
	</g>
</g>
<g transform="matrix(0.33225658238374106, 0, 0, 0.33225658238374106, 236.20582321133895, 95.32018844182844)">
	<g>
		<path fill="#0C9393" d="M-415.8,137.1c0,6.6-5.4,12-12,12c-6.7,0-12-5.4-12-12c0-6.7,5.4-12,12-12
			C-421.2,125.1-415.8,130.5-415.8,137.1z"/>
	</g>
</g>
<g transform="matrix(0.33225658238374106, 0, 0, 0.33225658238374106, 236.20582321133895, 95.32018844182844)">
	<g>
		<path fill="#0C9393" d="M1069.4,217.4c0,6.6-5.4,12-12,12c-6.6,0-12-5.4-12-12c0-6.7,5.4-12,12-12
			C1064,205.4,1069.4,210.8,1069.4,217.4z"/>
	</g>
</g>
<g transform="matrix(0.33225658238374106, 0, 0, 0.33225658238374106, 236.20582321133895, 95.32018844182844)">
	<g>
		<path fill="#0C9393" d="M808.5,980.1c0,6.7-5.4,12-12,12c-6.6,0-12-5.4-12-12c0-6.6,5.4-12,12-12
			C803.1,968,808.5,973.4,808.5,980.1z"/>
	</g>
</g>
<g transform="matrix(0.33225658238374106, 0, 0, 0.33225658238374106, 236.20582321133895, 95.32018844182844)">
	<g>
		<path fill="#0C9393" d="M467.3,1140.6c0,6.6-5.4,12-12,12c-6.6,0-12-5.4-12-12c0-6.7,5.4-12,12-12
			C461.9,1128.6,467.3,1134,467.3,1140.6z"/>
	</g>
</g>
<g transform="matrix(0.33225658238374106, 0, 0, 0.33225658238374106, 236.20582321133895, 95.32018844182844)">
	<g>
		<path fill="#0C9393" d="M507.4,899.8c0,6.6-5.4,12-12,12s-12-5.4-12-12c0-6.7,5.4-12,12-12S507.4,893.1,507.4,899.8z"/>
	</g>
</g>
<g transform="matrix(0.33225658238374106, 0, 0, 0.33225658238374106, 236.20582321133895, 95.32018844182844)">
	<g>
		<path fill="#0C9393" d="M888.7,980.1c0,6.7-5.4,12-12,12c-6.6,0-12-5.4-12-12c0-6.6,5.4-12,12-12
			C883.4,968,888.7,973.4,888.7,980.1z"/>
	</g>
</g>
<g transform="matrix(0.33225658238374106, 0, 0, 0.33225658238374106, 236.20582321133895, 95.32018844182844)">
	<g>
		<path fill="#0C9393" d="M507.4,839.6c0,6.6-5.4,12-12,12s-12-5.4-12-12c0-6.7,5.4-12,12-12S507.4,832.9,507.4,839.6z"/>
	</g>
</g>
<g transform="matrix(0.33225658238374106, 0, 0, 0.33225658238374106, 236.20582321133895, 95.32018844182844)">
	<g>
		<path fill="#0C9393" d="M668,1220.9c0,6.7-5.4,12-12,12c-6.7,0-12-5.4-12-12c0-6.6,5.4-12,12-12
			C662.6,1208.9,668,1214.2,668,1220.9z"/>
	</g>
</g>
</svg>
